<svg width="100" height="100" viewBox="0 0 100 100" fill="none" xmlns="http://www.w3.org/2000/svg">
<g clip-path="url(#clip0_1_8247)">
<path d="M49.4282 0.303223C62.6048 0.303224 74.9941 5.43492 84.3114 14.7522C93.631 24.0696 98.7626 36.4589 98.7626 49.6354C98.7626 62.812 93.6309 75.2036 84.3137 84.5209C74.9964 93.8382 62.607 98.9698 49.4282 98.9698C36.2494 98.9698 23.8624 93.8382 14.545 84.5209C5.2277 75.2036 0.0960072 62.8142 0.0960083 49.6377C0.0960095 36.461 5.2277 24.0718 14.545 14.7545C23.8624 5.43493 36.2517 0.303223 49.4282 0.303223ZM49.4282 95.6178C61.7094 95.6178 73.2585 90.8346 81.9429 82.1502C90.6274 73.4657 95.4106 61.9189 95.4106 49.6354C95.4106 37.352 90.6274 25.8052 81.9429 17.1208C73.2585 8.43633 61.7117 3.65306 49.4282 3.65306C37.1448 3.65306 25.598 8.43631 16.9136 17.1208C8.2291 25.8052 3.44583 37.352 3.44583 49.6354C3.44583 61.9189 8.2291 73.4636 16.9136 82.1502C25.6001 90.8346 37.147 95.6178 49.4282 95.6178Z" fill="url(#paint0_linear_1_8247)"/>
<path d="M49.4285 95.7869C74.9167 95.7869 95.579 75.1246 95.579 49.6364C95.579 24.1481 74.9167 3.48584 49.4285 3.48584C23.9402 3.48584 3.27795 24.1481 3.27795 49.6364C3.27795 75.1246 23.9402 95.7869 49.4285 95.7869Z" fill="white"/>
<path d="M49.4294 0.303223C62.6059 0.303224 74.9953 5.43492 84.3126 14.7522C93.6322 24.0696 98.7638 36.4589 98.7638 49.6354C98.7638 62.812 93.6321 75.2036 84.3149 84.5209C74.9975 93.8382 62.6082 98.9698 49.4294 98.9698C36.2506 98.9698 23.8635 93.8382 14.5462 84.5209C5.22886 75.2036 0.0971669 62.8142 0.097168 49.6377C0.0971692 36.461 5.22886 24.0718 14.5462 14.7545C23.8635 5.43493 36.2529 0.303223 49.4294 0.303223ZM49.4294 95.6178C61.7106 95.6178 73.2597 90.8346 81.9441 82.1502C90.6286 73.4657 95.4118 61.9189 95.4118 49.6354C95.4118 37.352 90.6286 25.8052 81.9441 17.1208C73.2597 8.43633 61.7129 3.65306 49.4294 3.65306C37.1459 3.65306 25.5991 8.43631 16.9147 17.1208C8.23026 25.8052 3.44699 37.352 3.44699 49.6354C3.44699 61.9189 8.23026 73.4636 16.9147 82.1502C25.6013 90.8346 37.1482 95.6178 49.4294 95.6178Z" fill="url(#paint1_linear_1_8247)"/>
<path d="M49.4282 95.7869C74.9165 95.7869 95.5788 75.1246 95.5788 49.6364C95.5788 24.1481 74.9165 3.48584 49.4282 3.48584C23.94 3.48584 3.27771 24.1481 3.27771 49.6364C3.27771 75.1246 23.94 95.7869 49.4282 95.7869Z" fill="white"/>
<g clip-path="url(#clip1_1_8247)">
<path d="M28.2134 49.5002C29.7241 49.34 32.5656 48.4561 32.5656 43.7582C32.5656 37.7245 27.5941 38.001 27.5941 38.001H14.2026C14.0446 38.001 13.888 38.0311 13.742 38.0896C13.596 38.1481 13.4634 38.2338 13.3517 38.3419C13.24 38.4499 13.1514 38.5782 13.0911 38.7194C13.0307 38.8605 12.9998 39.0118 13 39.1645V45.644C13.3831 42.5916 15.8728 42.6702 15.8728 42.6702H24.8886C24.9605 42.6702 26.6901 42.5191 26.6901 45.1106C26.6901 47.702 24.9308 47.5736 24.9308 47.5736H19.9592V45.6092H18.4986C17.4727 45.6092 17.5243 46.599 17.5243 46.599V52.4C17.5243 52.4 17.4727 53.3912 18.4986 53.3912H19.9592V51.4268H24.9308C24.9308 51.4268 26.6901 51.3014 26.6901 53.8899C26.6901 56.4783 24.9605 56.3318 24.8886 56.3318H15.8728C15.8728 56.3318 13.3831 56.4088 13 53.3565V59.8299C13 60.1381 13.1267 60.4336 13.3522 60.6516C13.5778 60.8695 13.8837 60.9919 14.2026 60.9919H27.5941C27.5941 60.9919 32.5656 61.2684 32.5656 55.2362C32.5656 50.5429 29.7241 49.6604 28.2134 49.5002Z" fill="#000001"/>
<path d="M36.7834 49.3783V40.4116H39.7814C40.8375 40.4116 41.6294 40.5899 42.1569 40.9465C42.6845 41.3032 42.9482 41.8426 42.9482 42.5649C42.9482 42.7858 42.9209 43.006 42.8669 43.2207C42.8153 43.4298 42.7298 43.6297 42.6136 43.813C42.4997 43.9927 42.356 44.153 42.1882 44.2875C42.0086 44.429 41.8042 44.538 41.5845 44.6094C41.8168 44.6461 42.0412 44.7191 42.2492 44.8255C42.4577 44.9325 42.6451 45.0742 42.8028 45.244C42.9646 45.422 43.0918 45.6268 43.1781 45.8485C43.2738 46.0989 43.321 46.3642 43.3173 46.6312C43.3173 47.5459 42.9998 48.2329 42.3649 48.6923C41.73 49.1517 40.8141 49.3813 39.6172 49.3813L36.7834 49.3783ZM41.1279 42.8611C41.1292 42.7062 41.1005 42.5525 41.0434 42.4077C40.9859 42.27 40.8914 42.1495 40.7698 42.0587C40.6259 41.9534 40.4616 41.8773 40.2865 41.835C40.0534 41.7788 39.8136 41.7524 39.5734 41.7565H38.5162V44.1304H39.575C39.8194 44.1362 40.063 44.1025 40.2959 44.0306C40.4755 43.9742 40.6404 43.8809 40.7791 43.7571C40.9005 43.6457 40.9927 43.5079 41.0481 43.3552C41.1039 43.1961 41.1309 43.029 41.1279 42.8611ZM39.736 47.9987C39.9852 48.0029 40.2334 47.9682 40.4711 47.896C40.6655 47.8355 40.8457 47.7384 41.0012 47.6104C41.1401 47.4921 41.2502 47.3455 41.3234 47.1812C41.3976 47.0147 41.4354 46.8352 41.4344 46.6539C41.4413 46.4786 41.4037 46.3043 41.3249 46.1463C41.2461 45.9883 41.1286 45.8513 40.9824 45.7472C40.6822 45.5286 40.2219 45.4188 39.6015 45.4178H38.5162V48.0047L39.736 47.9987Z" fill="#000001"/>
<path d="M50.4814 49.3783L49.9701 47.6088H46.7328L46.2074 49.3783H44.4746L47.227 40.4116H49.6698L52.4175 49.3783H50.4814ZM48.3733 42.0572L47.152 46.2308H49.5806L48.3733 42.0572Z" fill="#000001"/>
<path d="M60.2663 46.6659C60.2769 47.1063 60.181 47.543 59.9864 47.9413C59.8048 48.2968 59.5364 48.6043 59.2045 48.8373C58.8425 49.0838 58.4355 49.2617 58.005 49.3617C57.5077 49.4803 56.997 49.5382 56.4849 49.5339C56.0144 49.5341 55.5444 49.5063 55.0774 49.4508C54.6209 49.3957 54.17 49.3037 53.7293 49.1758V47.5136C53.9467 47.5877 54.1735 47.6557 54.4112 47.7192C54.6489 47.7826 54.8804 47.84 55.1243 47.8884C55.3683 47.9367 55.6013 47.973 55.8374 48.0002C56.0662 48.0282 56.2965 48.0423 56.5271 48.0425C56.811 48.0477 57.0946 48.0198 57.3716 47.9594C57.5733 47.9171 57.7655 47.8404 57.9393 47.7328C58.0759 47.6481 58.1866 47.5297 58.2599 47.3897C58.3268 47.2528 58.3605 47.1029 58.3584 46.9515C58.3656 46.7503 58.296 46.5535 58.1629 46.3985C58.0173 46.2383 57.843 46.1047 57.6484 46.0041C57.4157 45.8829 57.1723 45.7817 56.9212 45.7019C56.6491 45.6097 56.3707 45.5115 56.0892 45.4072C55.8077 45.303 55.5153 45.173 55.2494 45.0385C54.9824 44.9105 54.7372 44.7439 54.5222 44.5444C54.3057 44.3439 54.1306 44.1054 54.0061 43.8417C53.8686 43.5308 53.8024 43.1946 53.8122 42.8565C53.8102 42.5133 53.8777 42.1729 54.0108 41.8547C54.1479 41.5348 54.3624 41.2513 54.6364 41.0281C54.9591 40.7724 55.3312 40.5814 55.7311 40.466C56.2536 40.3159 56.7969 40.245 57.3419 40.256C57.528 40.256 57.7204 40.265 57.9205 40.2802C58.1207 40.2953 58.3209 40.3179 58.5179 40.3421C58.715 40.3663 58.9042 40.398 59.0856 40.4313C59.267 40.4645 59.4344 40.5008 59.5861 40.5386V42.0814C59.4297 42.027 59.2733 41.9771 59.0887 41.9302C58.9042 41.8834 58.7244 41.8456 58.532 41.8109C58.3396 41.7761 58.1473 41.7504 57.9534 41.7323C57.7594 41.7142 57.5749 41.7051 57.3998 41.7051C57.1372 41.7002 56.8749 41.724 56.6178 41.7761C56.4324 41.8139 56.2548 41.8814 56.0924 41.9756C55.9644 42.0503 55.8613 42.1588 55.7952 42.2884C55.7319 42.4166 55.7003 42.5573 55.703 42.6994C55.6995 42.8789 55.7691 43.0526 55.8969 43.1829C56.0473 43.3318 56.2229 43.455 56.4161 43.5471C56.6527 43.6636 56.8973 43.7646 57.148 43.8493C57.4201 43.943 57.699 44.0437 57.9846 44.1515C58.2709 44.2587 58.5508 44.3813 58.8229 44.5187C59.0895 44.6528 59.3357 44.8216 59.5548 45.0204C59.7716 45.2186 59.9473 45.4551 60.0724 45.717C60.2093 46.0154 60.2755 46.3396 60.2663 46.6659Z" fill="#000001"/>
<path d="M62.6671 41.7897V40.4116H68.5316V41.7897H66.4876V47.9851H68.5316V49.3768H62.6671V47.9851H64.7111V41.7897H62.6671Z" fill="#000001"/>
<path d="M77.3097 49.0292C76.9221 49.1822 76.5212 49.3015 76.1118 49.3858C75.716 49.4641 75.3131 49.5031 74.9091 49.5021C74.3055 49.5125 73.7051 49.4162 73.1373 49.2181C72.6405 49.0393 72.195 48.7487 71.8377 48.3704C71.4678 47.9673 71.1939 47.4906 71.0354 46.9741C70.6622 45.68 70.6708 44.3108 71.0604 43.0212C71.2355 42.4736 71.5256 41.9669 71.9127 41.5328C72.2813 41.1281 72.7416 40.8111 73.2577 40.6065C73.8231 40.3869 74.4281 40.2785 75.0374 40.2876C75.2501 40.2876 75.4502 40.2876 75.6363 40.3012C75.8224 40.3148 76.007 40.3269 76.1868 40.3526C76.3667 40.3783 76.5496 40.4116 76.7342 40.4524C76.9187 40.4931 77.1095 40.546 77.3097 40.6035V42.2777C76.9419 42.1071 76.556 41.9759 76.1587 41.8864C75.8324 41.8134 75.4989 41.7744 75.164 41.77C74.7742 41.7598 74.3874 41.8385 74.0349 41.9997C73.7267 42.15 73.4619 42.3716 73.2639 42.6449C73.0529 42.9443 72.9027 43.2796 72.8214 43.6332C72.7227 44.0458 72.675 44.4684 72.679 44.8919C72.6736 45.3296 72.7224 45.7664 72.8245 46.1929C72.9059 46.5421 73.0591 46.872 73.2749 47.163C73.4771 47.4264 73.7465 47.6347 74.0568 47.7674C74.4131 47.9153 74.7983 47.987 75.1859 47.9775C75.3564 47.9762 75.5264 47.9611 75.6942 47.9321C75.8756 47.9019 76.0601 47.8641 76.2478 47.8158C76.4355 47.7674 76.6184 47.71 76.8014 47.6435C76.9844 47.577 77.1533 47.5106 77.3097 47.4411V49.0292Z" fill="#000001"/>
<path d="M85.9998 46.6661C86.0104 47.1064 85.9146 47.5431 85.7199 47.9414C85.5383 48.2969 85.2699 48.6044 84.938 48.8375C84.576 49.0839 84.169 49.2618 83.7385 49.3618C83.2412 49.4804 82.7306 49.5383 82.2184 49.5341C81.7479 49.5342 81.2779 49.5065 80.8109 49.451C80.3539 49.3957 79.9025 49.3037 79.4613 49.1759V47.5138C79.6802 47.5878 79.907 47.6558 80.1431 47.7193C80.3793 47.7827 80.6123 47.8402 80.8578 47.8885C81.1034 47.9369 81.327 47.9731 81.571 48.0003C81.7986 48.0287 82.0279 48.0434 82.2575 48.0442C82.5414 48.0492 82.825 48.0213 83.102 47.961C83.3037 47.9188 83.4959 47.842 83.6697 47.7344C83.804 47.6494 83.9121 47.5308 83.9825 47.3914C84.0506 47.2548 84.0848 47.1048 84.0825 46.9532C84.089 46.752 84.0195 46.5554 83.8871 46.4001C83.7414 46.2399 83.5671 46.1063 83.3725 46.0057C83.1398 45.8845 82.8965 45.7834 82.6453 45.7035C82.3722 45.6108 82.0949 45.5126 81.8134 45.4088C81.5319 45.3051 81.2551 45.1857 80.9829 45.0507C80.7159 44.9227 80.4707 44.7561 80.2558 44.5566C80.0393 44.3561 79.8641 44.1176 79.7397 43.854C79.6021 43.543 79.5359 43.2068 79.5457 42.8687C79.5438 42.5255 79.6112 42.1852 79.7444 41.8669C79.8809 41.5467 80.0955 41.2631 80.3699 41.0403C80.6926 40.7846 81.0647 40.5936 81.4646 40.4782C81.9871 40.3281 82.5305 40.2572 83.0754 40.2682C83.2599 40.2682 83.4539 40.2773 83.654 40.2924C83.8542 40.3075 84.0544 40.3301 84.2514 40.3543C84.4485 40.3785 84.6362 40.4102 84.8191 40.4435C85.0021 40.4767 85.1679 40.513 85.3196 40.5508V42.0936C85.1632 42.0392 85.0068 41.9893 84.8223 41.9425C84.6377 41.8956 84.4563 41.8578 84.2655 41.8231C84.0747 41.7883 83.8808 41.7626 83.6869 41.7445C83.493 41.7264 83.3084 41.7173 83.1333 41.7173C82.8707 41.7124 82.6084 41.7363 82.3513 41.7883C82.1659 41.8262 81.9884 41.8936 81.8259 41.9878C81.6978 42.0628 81.5943 42.1712 81.5272 42.3006C81.4646 42.4291 81.433 42.5696 81.4349 42.7116C81.432 42.8913 81.5022 43.0649 81.6304 43.1951C81.7805 43.3444 81.9562 43.4676 82.1496 43.5593C82.3857 43.6758 82.6297 43.7768 82.8799 43.8615C83.152 43.9552 83.4315 44.0559 83.7182 44.1637C84.0044 44.2709 84.2843 44.3935 84.5564 44.5309C84.823 44.665 85.0692 44.8338 85.2883 45.0326C85.5046 45.2313 85.6802 45.4677 85.8059 45.7292C85.9403 46.0241 86.0065 46.3439 85.9998 46.6661Z" fill="#000001"/>
<path d="M42.0098 59.1865C41.3757 59.4399 40.6959 59.5694 40.0097 59.5673C38.8889 59.5673 38.0272 59.2434 37.4246 58.5957C36.822 57.9479 36.5207 56.9909 36.5207 55.7246C36.5135 55.1613 36.5979 54.6004 36.7709 54.0625C36.9183 53.599 37.1596 53.1686 37.4809 52.7962C37.7871 52.4513 38.1698 52.1775 38.6006 51.9953C39.0645 51.8021 39.5655 51.7058 40.0706 51.7128C40.4155 51.7103 40.7597 51.7412 41.0981 51.8049C41.4118 51.8645 41.7176 51.9578 42.0098 52.083V53.1105C41.7277 52.96 41.4279 52.8428 41.1169 52.7614C40.7871 52.6784 40.4474 52.6378 40.1066 52.6405C39.7588 52.6331 39.4135 52.6991 39.0948 52.834C38.7942 52.9683 38.531 53.1698 38.3269 53.4218C38.1034 53.7017 37.9382 54.0209 37.8406 54.3617C37.7208 54.7736 37.6634 55.2001 37.6701 55.6279C37.6701 56.6222 37.8786 57.3717 38.2957 57.8764C38.7127 58.3811 39.3247 58.633 40.1316 58.6319C40.4615 58.6332 40.7903 58.5951 41.1106 58.5186C41.4211 58.4424 41.7225 58.335 42.0098 58.1983V59.1865Z" fill="#000001"/>
<path d="M50.0872 59.474H48.908L48.3544 57.8013H45.0484L44.4885 59.474H43.3641L46.0024 51.7993H47.4849L50.0872 59.474ZM48.0448 56.8674L46.7014 52.7619L45.358 56.8674H48.0448Z" fill="#000001"/>
<path d="M56.8213 54.1471C56.8203 54.4656 56.7583 54.7812 56.6383 55.0779C56.5151 55.3896 56.3223 55.6713 56.0738 55.903C55.7923 56.162 55.4592 56.3631 55.0948 56.4938C54.6397 56.654 54.1575 56.7303 53.6732 56.7189H52.688V59.4736H51.6058V51.7989H53.8437C54.2239 51.797 54.603 51.8391 54.9728 51.9243C55.3143 52.0004 55.6376 52.1389 55.9252 52.3323C56.1996 52.5214 56.4232 52.7711 56.5774 53.0606C56.7492 53.3981 56.833 53.7711 56.8213 54.1471ZM55.6969 54.1939C55.7101 53.9803 55.6717 53.7667 55.5845 53.57C55.4974 53.3732 55.364 53.1988 55.1949 53.0606C54.8623 52.7997 54.3931 52.6688 53.7874 52.6678H52.6817V55.8274H53.6904C54.3316 55.8274 54.8253 55.6919 55.1714 55.4209C55.5176 55.1499 55.6927 54.7409 55.6969 54.1939Z" fill="#000001"/>
<path d="M60.8625 52.6788H59.0327V51.7993H63.7869V52.6788H61.9572V58.581H63.7869V59.474H59.0327V58.581H60.8625V52.6788Z" fill="#000001"/>
<path d="M71.6514 52.6908H69.3056V59.474H68.2109V52.6908H65.8651V51.7993H71.6639L71.6514 52.6908Z" fill="#000001"/>
<path d="M79.4551 59.474H78.276L77.7224 57.8013H74.4163L73.8565 59.474H72.7321L75.3766 51.7993H76.8591L79.4551 59.474ZM77.4096 56.8674L76.0662 52.7619L74.7229 56.8674H77.4096Z" fill="#000001"/>
<path d="M85.9999 59.474H81.4302V51.7993H82.5249V58.581H85.9952L85.9999 59.474Z" fill="#000001"/>
</g>
</g>
<defs>
<linearGradient id="paint0_linear_1_8247" x1="84.3132" y1="14.7525" x2="14.5453" y2="84.5205" gradientUnits="userSpaceOnUse">
<stop/>
<stop offset="1" stop-color="#515151"/>
</linearGradient>
<linearGradient id="paint1_linear_1_8247" x1="84.3144" y1="14.7525" x2="14.5465" y2="84.5205" gradientUnits="userSpaceOnUse">
<stop/>
<stop offset="1" stop-color="#515151"/>
</linearGradient>
<clipPath id="clip0_1_8247">
<rect width="100" height="100" fill="white"/>
</clipPath>
<clipPath id="clip1_1_8247">
<rect width="73" height="23" fill="white" transform="translate(13 38)"/>
</clipPath>
</defs>
</svg>
