<svg width="32" height="32" viewBox="0 0 32 32" fill="none" xmlns="http://www.w3.org/2000/svg">
<circle cx="15.9986" cy="16" r="16" fill="#EAFAF3"/>
<path d="M23.4986 13.75H8.4986V15.25H23.4986V13.75Z" fill="#2DCA8C"/>
<path opacity="0.2" d="M21.2486 10.75H10.7486C9.50746 10.7536 8.50221 11.7589 8.4986 13V13.75H23.4986V13C23.495 11.7589 22.4897 10.7536 21.2486 10.75Z" fill="#2DCA8C"/>
<path opacity="0.2" d="M8.4986 19.75C8.50226 20.9911 9.50746 21.9963 10.7486 22H21.2486C22.4897 21.9963 23.4949 20.9911 23.4986 19.75V15.25H8.4986V19.75Z" fill="#2DCA8C"/>
<path d="M14.4986 18.25H12.2486C11.8344 18.25 11.4986 17.9142 11.4986 17.5C11.4986 17.0858 11.8344 16.75 12.2486 16.75H14.4986C14.9128 16.75 15.2486 17.0858 15.2486 17.5C15.2486 17.9142 14.9128 18.25 14.4986 18.25Z" fill="#2DCA8C"/>
</svg>
