<svg width="100" height="100" viewBox="0 0 100 100" fill="none" xmlns="http://www.w3.org/2000/svg">
<path d="M49.4282 0.303223C62.6047 0.303224 74.994 5.43493 84.3114 14.7522C93.631 24.0696 98.7626 36.4589 98.7626 49.6354C98.7626 62.8121 93.6308 75.2036 84.3136 84.5209C74.9963 93.8382 62.607 98.9698 49.4282 98.9698C36.2494 98.9698 23.8623 93.8382 14.545 84.5209C5.22762 75.2036 0.0959309 62.8142 0.095932 49.6377C0.0959332 36.461 5.22762 24.0718 14.545 14.7545C23.8623 5.43491 36.2516 0.303221 49.4282 0.303223ZM49.4282 95.6178C61.7094 95.6178 73.2584 90.8346 81.9428 82.1502C90.6274 73.4658 95.4106 61.9189 95.4106 49.6354C95.4106 37.352 90.6274 25.8052 81.9428 17.1208C73.2584 8.43633 61.7116 3.65305 49.4282 3.65305C37.1447 3.65305 25.5979 8.43631 16.9135 17.1208C8.22902 25.8052 3.44576 37.352 3.44576 49.6354C3.44576 61.9189 8.22902 73.4636 16.9135 82.1502C25.6 90.8346 37.147 95.6178 49.4282 95.6178Z" fill="url(#paint0_linear_1_8146)"/>
<path d="M49.4293 95.7869C74.9175 95.7869 95.5798 75.1246 95.5798 49.6364C95.5798 24.1481 74.9175 3.48584 49.4293 3.48584C23.9411 3.48584 3.27878 24.1481 3.27878 49.6364C3.27878 75.1246 23.9411 95.7869 49.4293 95.7869Z" fill="#333333"/>
<mask id="mask0_1_8146" style="mask-type:alpha" maskUnits="userSpaceOnUse" x="3" y="3" width="93" height="93">
<path d="M49.4793 95.8372C74.9675 95.8372 95.6298 75.1749 95.6298 49.6867C95.6298 24.1984 74.9675 3.53613 49.4793 3.53613C23.991 3.53613 3.32874 24.1984 3.32874 49.6867C3.32874 75.1749 23.991 95.8372 49.4793 95.8372Z" fill="black"/>
</mask>
<g mask="url(#mask0_1_8146)">
<path d="M49.4808 95.8367C74.969 95.8367 95.6313 75.1744 95.6313 49.6862C95.6313 24.1979 74.969 3.53564 49.4808 3.53564C23.9925 3.53564 3.33023 24.1979 3.33023 49.6862C3.33023 75.1744 23.9925 95.8367 49.4808 95.8367Z" fill="white"/>
<path d="M15.9402 55.6007C17.0116 55.6007 17.8802 54.7321 17.8802 53.6607C17.8802 52.5893 17.0116 51.7207 15.9402 51.7207C14.8687 51.7207 14.0002 52.5893 14.0002 53.6607C14.0002 54.7321 14.8687 55.6007 15.9402 55.6007Z" fill="#003A70"/>
<path d="M15.9402 63.3707C17.0116 63.3707 17.8802 62.5022 17.8802 61.4307C17.8802 60.3593 17.0116 59.4907 15.9402 59.4907C14.8687 59.4907 14.0002 60.3593 14.0002 61.4307C14.0002 62.5022 14.8687 63.3707 15.9402 63.3707Z" fill="#003A70"/>
<path d="M15.9402 71.1403C17.0116 71.1403 17.8802 70.2717 17.8802 69.2003C17.8802 68.1288 17.0116 67.2603 15.9402 67.2603C14.8687 67.2603 14.0002 68.1288 14.0002 69.2003C14.0002 70.2717 14.8687 71.1403 15.9402 71.1403Z" fill="#003A70"/>
<path d="M22.7802 52.8103C24.4978 52.8103 25.8902 51.4179 25.8902 49.7003C25.8902 47.9827 24.4978 46.5903 22.7802 46.5903C21.0625 46.5903 19.6702 47.9827 19.6702 49.7003C19.6702 51.4179 21.0625 52.8103 22.7802 52.8103Z" fill="#003A70"/>
<path d="M22.7802 60.5804C24.4978 60.5804 25.8902 59.188 25.8902 57.4704C25.8902 55.7527 24.4978 54.3604 22.7802 54.3604C21.0625 54.3604 19.6702 55.7527 19.6702 57.4704C19.6702 59.188 21.0625 60.5804 22.7802 60.5804Z" fill="#003A70"/>
<path d="M22.7802 68.3504C24.4978 68.3504 25.8902 66.958 25.8902 65.2404C25.8902 63.5228 24.4978 62.1304 22.7802 62.1304C21.0625 62.1304 19.6702 63.5228 19.6702 65.2404C19.6702 66.958 21.0625 68.3504 22.7802 68.3504Z" fill="#003A70"/>
<path d="M22.7801 74.9503C23.8516 74.9503 24.7201 74.0817 24.7201 73.0103C24.7201 71.9389 23.8516 71.0703 22.7801 71.0703C21.7087 71.0703 20.8401 71.9389 20.8401 73.0103C20.8401 74.0817 21.7087 74.9503 22.7801 74.9503Z" fill="#003A70"/>
<path d="M29.6102 55.6007C30.6816 55.6007 31.5501 54.7321 31.5501 53.6607C31.5501 52.5893 30.6816 51.7207 29.6102 51.7207C28.5387 51.7207 27.6702 52.5893 27.6702 53.6607C27.6702 54.7321 28.5387 55.6007 29.6102 55.6007Z" fill="#003A70"/>
<path d="M29.6102 63.3707C30.6816 63.3707 31.5501 62.5022 31.5501 61.4307C31.5501 60.3593 30.6816 59.4907 29.6102 59.4907C28.5387 59.4907 27.6702 60.3593 27.6702 61.4307C27.6702 62.5022 28.5387 63.3707 29.6102 63.3707Z" fill="#003A70"/>
<path d="M29.6102 72.3103C31.3278 72.3103 32.7202 70.9179 32.7202 69.2003C32.7202 67.4827 31.3278 66.0903 29.6102 66.0903C27.8925 66.0903 26.5002 67.4827 26.5002 69.2003C26.5002 70.9179 27.8925 72.3103 29.6102 72.3103Z" fill="#003A70"/>
<path d="M29.6102 78.9103C30.6816 78.9103 31.5501 78.0417 31.5501 76.9703C31.5501 75.8988 30.6816 75.0303 29.6102 75.0303C28.5387 75.0303 27.6702 75.8988 27.6702 76.9703C27.6702 78.0417 28.5387 78.9103 29.6102 78.9103Z" fill="#003A70"/>
<path d="M36.4502 50.8703C37.0963 50.8703 37.6202 50.3464 37.6202 49.7003C37.6202 49.0541 37.0963 48.5303 36.4502 48.5303C35.804 48.5303 35.2802 49.0541 35.2802 49.7003C35.2802 50.3464 35.804 50.8703 36.4502 50.8703Z" fill="#003A70"/>
<path d="M36.4502 58.6403C37.0963 58.6403 37.6202 58.1165 37.6202 57.4703C37.6202 56.8241 37.0963 56.3003 36.4502 56.3003C35.804 56.3003 35.2802 56.8241 35.2802 57.4703C35.2802 58.1165 35.804 58.6403 36.4502 58.6403Z" fill="#003A70"/>
<path d="M36.4501 67.1803C37.5216 67.1803 38.3901 66.3117 38.3901 65.2403C38.3901 64.1689 37.5216 63.3003 36.4501 63.3003C35.3787 63.3003 34.5101 64.1689 34.5101 65.2403C34.5101 66.3117 35.3787 67.1803 36.4501 67.1803Z" fill="#003A70"/>
<path d="M36.4501 76.1204C38.1678 76.1204 39.5601 74.728 39.5601 73.0104C39.5601 71.2928 38.1678 69.9004 36.4501 69.9004C34.7325 69.9004 33.3401 71.2928 33.3401 73.0104C33.3401 74.728 34.7325 76.1204 36.4501 76.1204Z" fill="#003A70"/>
<path d="M36.4501 82.7106C37.5216 82.7106 38.3901 81.842 38.3901 80.7706C38.3901 79.6991 37.5216 78.8306 36.4501 78.8306C35.3787 78.8306 34.5101 79.6991 34.5101 80.7706C34.5101 81.842 35.3787 82.7106 36.4501 82.7106Z" fill="#003A70"/>
<path d="M43.2802 54.4404C43.7109 54.4404 44.0602 54.0912 44.0602 53.6604C44.0602 53.2296 43.7109 52.8804 43.2802 52.8804C42.8494 52.8804 42.5002 53.2296 42.5002 53.6604C42.5002 54.0912 42.8494 54.4404 43.2802 54.4404Z" fill="#003A70"/>
<path d="M43.2802 62.6003C43.9263 62.6003 44.4502 62.0764 44.4502 61.4303C44.4502 60.7841 43.9263 60.2603 43.2802 60.2603C42.634 60.2603 42.1102 60.7841 42.1102 61.4303C42.1102 62.0764 42.634 62.6003 43.2802 62.6003Z" fill="#003A70"/>
<path d="M43.2801 71.1403C44.3516 71.1403 45.2201 70.2717 45.2201 69.2003C45.2201 68.1288 44.3516 67.2603 43.2801 67.2603C42.2087 67.2603 41.3401 68.1288 41.3401 69.2003C41.3401 70.2717 42.2087 71.1403 43.2801 71.1403Z" fill="#003A70"/>
<path d="M43.2802 80.0804C44.9978 80.0804 46.3902 78.688 46.3902 76.9704C46.3902 75.2527 44.9978 73.8604 43.2802 73.8604C41.5625 73.8604 40.1702 75.2527 40.1702 76.9704C40.1702 78.688 41.5625 80.0804 43.2802 80.0804Z" fill="#003A70"/>
<path d="M43.2801 86.6803C44.3516 86.6803 45.2201 85.8117 45.2201 84.7403C45.2201 83.6689 44.3516 82.8003 43.2801 82.8003C42.2087 82.8003 41.3401 83.6689 41.3401 84.7403C41.3401 85.8117 42.2087 86.6803 43.2801 86.6803Z" fill="#003A70"/>
<path d="M43.2801 16.7706C44.3516 16.7706 45.2201 15.9021 45.2201 14.8306C45.2201 13.7592 44.3516 12.8906 43.2801 12.8906C42.2087 12.8906 41.3401 13.7592 41.3401 14.8306C41.3401 15.9021 42.2087 16.7706 43.2801 16.7706Z" fill="#003A70"/>
<path d="M43.2802 25.7005C44.9978 25.7005 46.3902 24.3081 46.3902 22.5905C46.3902 20.8729 44.9978 19.4805 43.2802 19.4805C41.5625 19.4805 40.1702 20.8729 40.1702 22.5905C40.1702 24.3081 41.5625 25.7005 43.2802 25.7005Z" fill="#003A70"/>
<path d="M43.2801 32.3004C44.3516 32.3004 45.2201 31.4318 45.2201 30.3604C45.2201 29.289 44.3516 28.4204 43.2801 28.4204C42.2087 28.4204 41.3401 29.289 41.3401 30.3604C41.3401 31.4318 42.2087 32.3004 43.2801 32.3004Z" fill="#003A70"/>
<path d="M43.2802 39.3004C43.9263 39.3004 44.4502 38.7766 44.4502 38.1304C44.4502 37.4843 43.9263 36.9604 43.2802 36.9604C42.634 36.9604 42.1102 37.4843 42.1102 38.1304C42.1102 38.7766 42.634 39.3004 43.2802 39.3004Z" fill="#003A70"/>
<path d="M43.2802 46.6806C43.7109 46.6806 44.0602 46.3314 44.0602 45.9006C44.0602 45.4698 43.7109 45.1206 43.2802 45.1206C42.8494 45.1206 42.5002 45.4698 42.5002 45.9006C42.5002 46.3314 42.8494 46.6806 43.2802 46.6806Z" fill="#003A70"/>
<path d="M15.9402 32.2203C17.0116 32.2203 17.8802 31.3518 17.8802 30.2803C17.8802 29.2089 17.0116 28.3403 15.9402 28.3403C14.8687 28.3403 14.0002 29.2089 14.0002 30.2803C14.0002 31.3518 14.8687 32.2203 15.9402 32.2203Z" fill="#003A70"/>
<path d="M15.9402 39.9904C17.0116 39.9904 17.8802 39.1218 17.8802 38.0504C17.8802 36.9789 17.0116 36.1104 15.9402 36.1104C14.8687 36.1104 14.0002 36.9789 14.0002 38.0504C14.0002 39.1218 14.8687 39.9904 15.9402 39.9904Z" fill="#003A70"/>
<path d="M15.9402 47.7604C17.0116 47.7604 17.8802 46.8918 17.8802 45.8204C17.8802 44.7489 17.0116 43.8804 15.9402 43.8804C14.8687 43.8804 14.0002 44.7489 14.0002 45.8204C14.0002 46.8918 14.8687 47.7604 15.9402 47.7604Z" fill="#003A70"/>
<path d="M22.7801 28.4205C23.8516 28.4205 24.7201 27.552 24.7201 26.4805C24.7201 25.4091 23.8516 24.5405 22.7801 24.5405C21.7087 24.5405 20.8401 25.4091 20.8401 26.4805C20.8401 27.552 21.7087 28.4205 22.7801 28.4205Z" fill="#003A70"/>
<path d="M22.7802 37.3606C24.4978 37.3606 25.8902 35.9682 25.8902 34.2506C25.8902 32.533 24.4978 31.1406 22.7802 31.1406C21.0625 31.1406 19.6702 32.533 19.6702 34.2506C19.6702 35.9682 21.0625 37.3606 22.7802 37.3606Z" fill="#003A70"/>
<path d="M22.7802 45.1204C24.4978 45.1204 25.8902 43.728 25.8902 42.0104C25.8902 40.2928 24.4978 38.9004 22.7802 38.9004C21.0625 38.9004 19.6702 40.2928 19.6702 42.0104C19.6702 43.728 21.0625 45.1204 22.7802 45.1204Z" fill="#003A70"/>
<path d="M29.6102 24.4606C30.6816 24.4606 31.5501 23.592 31.5501 22.5206C31.5501 21.4491 30.6816 20.5806 29.6102 20.5806C28.5387 20.5806 27.6702 21.4491 27.6702 22.5206C27.6702 23.592 28.5387 24.4606 29.6102 24.4606Z" fill="#003A70"/>
<path d="M29.6102 33.3904C31.3278 33.3904 32.7202 31.998 32.7202 30.2804C32.7202 28.5628 31.3278 27.1704 29.6102 27.1704C27.8925 27.1704 26.5002 28.5628 26.5002 30.2804C26.5002 31.998 27.8925 33.3904 29.6102 33.3904Z" fill="#003A70"/>
<path d="M29.6102 39.9904C30.6816 39.9904 31.5501 39.1218 31.5501 38.0504C31.5501 36.9789 30.6816 36.1104 29.6102 36.1104C28.5387 36.1104 27.6702 36.9789 27.6702 38.0504C27.6702 39.1218 28.5387 39.9904 29.6102 39.9904Z" fill="#003A70"/>
<path d="M29.6102 47.7604C30.6816 47.7604 31.5501 46.8918 31.5501 45.8204C31.5501 44.7489 30.6816 43.8804 29.6102 43.8804C28.5387 43.8804 27.6702 44.7489 27.6702 45.8204C27.6702 46.8918 28.5387 47.7604 29.6102 47.7604Z" fill="#003A70"/>
<path d="M36.4501 20.6505C37.5216 20.6505 38.3901 19.7819 38.3901 18.7105C38.3901 17.6391 37.5216 16.7705 36.4501 16.7705C35.3787 16.7705 34.5101 17.6391 34.5101 18.7105C34.5101 19.7819 35.3787 20.6505 36.4501 20.6505Z" fill="#003A70"/>
<path d="M36.4501 29.5906C38.1678 29.5906 39.5601 28.1982 39.5601 26.4806C39.5601 24.763 38.1678 23.3706 36.4501 23.3706C34.7325 23.3706 33.3401 24.763 33.3401 26.4806C33.3401 28.1982 34.7325 29.5906 36.4501 29.5906Z" fill="#003A70"/>
<path d="M36.4501 36.1905C37.5216 36.1905 38.3901 35.322 38.3901 34.2505C38.3901 33.1791 37.5216 32.3105 36.4501 32.3105C35.3787 32.3105 34.5101 33.1791 34.5101 34.2505C34.5101 35.322 35.3787 36.1905 36.4501 36.1905Z" fill="#003A70"/>
<path d="M36.4502 43.1803C37.0963 43.1803 37.6202 42.6565 37.6202 42.0103C37.6202 41.3642 37.0963 40.8403 36.4502 40.8403C35.804 40.8403 35.2802 41.3642 35.2802 42.0103C35.2802 42.6565 35.804 43.1803 36.4502 43.1803Z" fill="#003A70"/>
<path d="M50.1201 50.4804C50.5509 50.4804 50.9002 50.1312 50.9002 49.7004C50.9002 49.2696 50.5509 48.9204 50.1201 48.9204C49.6894 48.9204 49.3401 49.2696 49.3401 49.7004C49.3401 50.1312 49.6894 50.4804 50.1201 50.4804Z" fill="#003A70"/>
<path d="M50.1201 58.2504C50.5509 58.2504 50.9002 57.9012 50.9002 57.4704C50.9002 57.0397 50.5509 56.6904 50.1201 56.6904C49.6894 56.6904 49.3401 57.0397 49.3401 57.4704C49.3401 57.9012 49.6894 58.2504 50.1201 58.2504Z" fill="#003A70"/>
<path d="M50.1201 66.4103C50.7663 66.4103 51.2901 65.8865 51.2901 65.2403C51.2901 64.5941 50.7663 64.0703 50.1201 64.0703C49.474 64.0703 48.9501 64.5941 48.9501 65.2403C48.9501 65.8865 49.474 66.4103 50.1201 66.4103Z" fill="#003A70"/>
<path d="M50.1201 74.9503C51.1916 74.9503 52.0601 74.0817 52.0601 73.0103C52.0601 71.9389 51.1916 71.0703 50.1201 71.0703C49.0487 71.0703 48.1801 71.9389 48.1801 73.0103C48.1801 74.0817 49.0487 74.9503 50.1201 74.9503Z" fill="#003A70"/>
<path d="M50.1201 83.8806C51.8378 83.8806 53.2301 82.4882 53.2301 80.7706C53.2301 79.053 51.8378 77.6606 50.1201 77.6606C48.4025 77.6606 47.0101 79.053 47.0101 80.7706C47.0101 82.4882 48.4025 83.8806 50.1201 83.8806Z" fill="#003A70"/>
<path d="M50.1201 90.4806C51.1916 90.4806 52.0601 89.612 52.0601 88.5406C52.0601 87.4692 51.1916 86.6006 50.1201 86.6006C49.0487 86.6006 48.1801 87.4692 48.1801 88.5406C48.1801 89.612 49.0487 90.4806 50.1201 90.4806Z" fill="#003A70"/>
<path d="M56.9601 54.4404C57.3909 54.4404 57.7401 54.0912 57.7401 53.6604C57.7401 53.2296 57.3909 52.8804 56.9601 52.8804C56.5294 52.8804 56.1801 53.2296 56.1801 53.6604C56.1801 54.0912 56.5294 54.4404 56.9601 54.4404Z" fill="#003A70"/>
<path d="M56.9602 62.6003C57.6063 62.6003 58.1302 62.0764 58.1302 61.4303C58.1302 60.7841 57.6063 60.2603 56.9602 60.2603C56.314 60.2603 55.7902 60.7841 55.7902 61.4303C55.7902 62.0764 56.314 62.6003 56.9602 62.6003Z" fill="#003A70"/>
<path d="M56.9602 71.1403C58.0316 71.1403 58.9002 70.2717 58.9002 69.2003C58.9002 68.1288 58.0316 67.2603 56.9602 67.2603C55.8887 67.2603 55.0202 68.1288 55.0202 69.2003C55.0202 70.2717 55.8887 71.1403 56.9602 71.1403Z" fill="#003A70"/>
<path d="M56.9602 80.0804C58.6778 80.0804 60.0702 78.688 60.0702 76.9704C60.0702 75.2527 58.6778 73.8604 56.9602 73.8604C55.2426 73.8604 53.8502 75.2527 53.8502 76.9704C53.8502 78.688 55.2426 80.0804 56.9602 80.0804Z" fill="#003A70"/>
<path d="M56.9602 86.6803C58.0316 86.6803 58.9002 85.8117 58.9002 84.7403C58.9002 83.6689 58.0316 82.8003 56.9602 82.8003C55.8887 82.8003 55.0202 83.6689 55.0202 84.7403C55.0202 85.8117 55.8887 86.6803 56.9602 86.6803Z" fill="#003A70"/>
<path d="M63.7901 50.4804C64.2209 50.4804 64.5701 50.1312 64.5701 49.7004C64.5701 49.2696 64.2209 48.9204 63.7901 48.9204C63.3594 48.9204 63.0101 49.2696 63.0101 49.7004C63.0101 50.1312 63.3594 50.4804 63.7901 50.4804Z" fill="#003A70"/>
<path d="M63.7901 58.6403C64.4363 58.6403 64.9601 58.1165 64.9601 57.4703C64.9601 56.8241 64.4363 56.3003 63.7901 56.3003C63.144 56.3003 62.6201 56.8241 62.6201 57.4703C62.6201 58.1165 63.144 58.6403 63.7901 58.6403Z" fill="#003A70"/>
<path d="M63.7902 67.1803C64.8616 67.1803 65.7302 66.3117 65.7302 65.2403C65.7302 64.1689 64.8616 63.3003 63.7902 63.3003C62.7187 63.3003 61.8502 64.1689 61.8502 65.2403C61.8502 66.3117 62.7187 67.1803 63.7902 67.1803Z" fill="#003A70"/>
<path d="M63.7901 76.1204C65.5078 76.1204 66.9001 74.728 66.9001 73.0104C66.9001 71.2928 65.5078 69.9004 63.7901 69.9004C62.0725 69.9004 60.6801 71.2928 60.6801 73.0104C60.6801 74.728 62.0725 76.1204 63.7901 76.1204Z" fill="#003A70"/>
<path d="M63.7902 82.7106C64.8616 82.7106 65.7302 81.842 65.7302 80.7706C65.7302 79.6991 64.8616 78.8306 63.7902 78.8306C62.7187 78.8306 61.8502 79.6991 61.8502 80.7706C61.8502 81.842 62.7187 82.7106 63.7902 82.7106Z" fill="#003A70"/>
<path d="M70.6301 54.8307C71.2763 54.8307 71.8001 54.3069 71.8001 53.6607C71.8001 53.0145 71.2763 52.4907 70.6301 52.4907C69.984 52.4907 69.4601 53.0145 69.4601 53.6607C69.4601 54.3069 69.984 54.8307 70.6301 54.8307Z" fill="#003A70"/>
<path d="M70.6302 63.3707C71.7016 63.3707 72.5702 62.5022 72.5702 61.4307C72.5702 60.3593 71.7016 59.4907 70.6302 59.4907C69.5587 59.4907 68.6902 60.3593 68.6902 61.4307C68.6902 62.5022 69.5587 63.3707 70.6302 63.3707Z" fill="#003A70"/>
<path d="M70.6302 72.3103C72.3478 72.3103 73.7402 70.9179 73.7402 69.2003C73.7402 67.4827 72.3478 66.0903 70.6302 66.0903C68.9126 66.0903 67.5202 67.4827 67.5202 69.2003C67.5202 70.9179 68.9126 72.3103 70.6302 72.3103Z" fill="#003A70"/>
<path d="M70.6302 78.9103C71.7016 78.9103 72.5702 78.0417 72.5702 76.9703C72.5702 75.8988 71.7016 75.0303 70.6302 75.0303C69.5587 75.0303 68.6902 75.8988 68.6902 76.9703C68.6902 78.0417 69.5587 78.9103 70.6302 78.9103Z" fill="#003A70"/>
<path d="M77.4601 50.4804C77.8909 50.4804 78.2401 50.1312 78.2401 49.7004C78.2401 49.2696 77.8909 48.9204 77.4601 48.9204C77.0294 48.9204 76.6801 49.2696 76.6801 49.7004C76.6801 50.1312 77.0294 50.4804 77.4601 50.4804Z" fill="#003A70"/>
<path d="M77.4602 58.6403C78.1063 58.6403 78.6302 58.1165 78.6302 57.4703C78.6302 56.8241 78.1063 56.3003 77.4602 56.3003C76.814 56.3003 76.2902 56.8241 76.2902 57.4703C76.2902 58.1165 76.814 58.6403 77.4602 58.6403Z" fill="#003A70"/>
<path d="M77.4602 67.1803C78.5316 67.1803 79.4002 66.3117 79.4002 65.2403C79.4002 64.1689 78.5316 63.3003 77.4602 63.3003C76.3887 63.3003 75.5202 64.1689 75.5202 65.2403C75.5202 66.3117 76.3887 67.1803 77.4602 67.1803Z" fill="#003A70"/>
<path d="M77.4602 74.9503C78.5316 74.9503 79.4002 74.0817 79.4002 73.0103C79.4002 71.9389 78.5316 71.0703 77.4602 71.0703C76.3887 71.0703 75.5202 71.9389 75.5202 73.0103C75.5202 74.0817 76.3887 74.9503 77.4602 74.9503Z" fill="#003A70"/>
<path d="M84.3001 54.4404C84.7309 54.4404 85.0801 54.0912 85.0801 53.6604C85.0801 53.2296 84.7309 52.8804 84.3001 52.8804C83.8694 52.8804 83.5201 53.2296 83.5201 53.6604C83.5201 54.0912 83.8694 54.4404 84.3001 54.4404Z" fill="#003A70"/>
<path d="M84.3002 62.6003C84.9463 62.6003 85.4702 62.0764 85.4702 61.4303C85.4702 60.7841 84.9463 60.2603 84.3002 60.2603C83.654 60.2603 83.1302 60.7841 83.1302 61.4303C83.1302 62.0764 83.654 62.6003 84.3002 62.6003Z" fill="#003A70"/>
<path d="M84.3002 70.3703C84.9463 70.3703 85.4702 69.8464 85.4702 69.2003C85.4702 68.5541 84.9463 68.0303 84.3002 68.0303C83.654 68.0303 83.1302 68.5541 83.1302 69.2003C83.1302 69.8464 83.654 70.3703 84.3002 70.3703Z" fill="#003A70"/>
<path d="M50.1201 12.8805C51.1916 12.8805 52.0601 12.0119 52.0601 10.9405C52.0601 9.86906 51.1916 9.00049 50.1201 9.00049C49.0487 9.00049 48.1801 9.86906 48.1801 10.9405C48.1801 12.0119 49.0487 12.8805 50.1201 12.8805Z" fill="#003A70"/>
<path d="M50.1201 21.8206C51.8378 21.8206 53.2301 20.4282 53.2301 18.7106C53.2301 16.993 51.8378 15.6006 50.1201 15.6006C48.4025 15.6006 47.0101 16.993 47.0101 18.7106C47.0101 20.4282 48.4025 21.8206 50.1201 21.8206Z" fill="#003A70"/>
<path d="M50.1201 28.4205C51.1916 28.4205 52.0601 27.552 52.0601 26.4805C52.0601 25.4091 51.1916 24.5405 50.1201 24.5405C49.0487 24.5405 48.1801 25.4091 48.1801 26.4805C48.1801 27.552 49.0487 28.4205 50.1201 28.4205Z" fill="#003A70"/>
<path d="M50.1201 35.4206C50.7663 35.4206 51.2901 34.8967 51.2901 34.2506C51.2901 33.6044 50.7663 33.0806 50.1201 33.0806C49.474 33.0806 48.9501 33.6044 48.9501 34.2506C48.9501 34.8967 49.474 35.4206 50.1201 35.4206Z" fill="#003A70"/>
<path d="M50.1201 42.7905C50.5509 42.7905 50.9002 42.4412 50.9002 42.0105C50.9002 41.5797 50.5509 41.2305 50.1201 41.2305C49.6894 41.2305 49.3401 41.5797 49.3401 42.0105C49.3401 42.4412 49.6894 42.7905 50.1201 42.7905Z" fill="#003A70"/>
<path d="M56.9602 16.6905C58.0316 16.6905 58.9002 15.822 58.9002 14.7505C58.9002 13.6791 58.0316 12.8105 56.9602 12.8105C55.8887 12.8105 55.0202 13.6791 55.0202 14.7505C55.0202 15.822 55.8887 16.6905 56.9602 16.6905Z" fill="#003A70"/>
<path d="M56.9602 25.6306C58.6778 25.6306 60.0702 24.2383 60.0702 22.5206C60.0702 20.803 58.6778 19.4106 56.9602 19.4106C55.2426 19.4106 53.8502 20.803 53.8502 22.5206C53.8502 24.2383 55.2426 25.6306 56.9602 25.6306Z" fill="#003A70"/>
<path d="M56.9602 32.2203C58.0316 32.2203 58.9002 31.3518 58.9002 30.2803C58.9002 29.2089 58.0316 28.3403 56.9602 28.3403C55.8887 28.3403 55.0202 29.2089 55.0202 30.2803C55.0202 31.3518 55.8887 32.2203 56.9602 32.2203Z" fill="#003A70"/>
<path d="M56.9602 39.2204C57.6063 39.2204 58.1302 38.6965 58.1302 38.0504C58.1302 37.4042 57.6063 36.8804 56.9602 36.8804C56.314 36.8804 55.7902 37.4042 55.7902 38.0504C55.7902 38.6965 56.314 39.2204 56.9602 39.2204Z" fill="#003A70"/>
<path d="M56.9601 46.6005C57.3909 46.6005 57.7401 46.2513 57.7401 45.8205C57.7401 45.3897 57.3909 45.0405 56.9601 45.0405C56.5294 45.0405 56.1801 45.3897 56.1801 45.8205C56.1801 46.2513 56.5294 46.6005 56.9601 46.6005Z" fill="#003A70"/>
<path d="M63.7902 20.6505C64.8616 20.6505 65.7302 19.7819 65.7302 18.7105C65.7302 17.6391 64.8616 16.7705 63.7902 16.7705C62.7187 16.7705 61.8502 17.6391 61.8502 18.7105C61.8502 19.7819 62.7187 20.6505 63.7902 20.6505Z" fill="#003A70"/>
<path d="M63.7901 29.5906C65.5078 29.5906 66.9001 28.1982 66.9001 26.4806C66.9001 24.763 65.5078 23.3706 63.7901 23.3706C62.0725 23.3706 60.6801 24.763 60.6801 26.4806C60.6801 28.1982 62.0725 29.5906 63.7901 29.5906Z" fill="#003A70"/>
<path d="M63.7902 36.1905C64.8616 36.1905 65.7302 35.322 65.7302 34.2505C65.7302 33.1791 64.8616 32.3105 63.7902 32.3105C62.7187 32.3105 61.8502 33.1791 61.8502 34.2505C61.8502 35.322 62.7187 36.1905 63.7902 36.1905Z" fill="#003A70"/>
<path d="M63.7901 43.1803C64.4363 43.1803 64.9601 42.6565 64.9601 42.0103C64.9601 41.3642 64.4363 40.8403 63.7901 40.8403C63.144 40.8403 62.6201 41.3642 62.6201 42.0103C62.6201 42.6565 63.144 43.1803 63.7901 43.1803Z" fill="#003A70"/>
<path d="M70.6302 24.4606C71.7016 24.4606 72.5702 23.592 72.5702 22.5206C72.5702 21.4491 71.7016 20.5806 70.6302 20.5806C69.5587 20.5806 68.6902 21.4491 68.6902 22.5206C68.6902 23.592 69.5587 24.4606 70.6302 24.4606Z" fill="#003A70"/>
<path d="M70.6302 33.3904C72.3478 33.3904 73.7402 31.998 73.7402 30.2804C73.7402 28.5628 72.3478 27.1704 70.6302 27.1704C68.9126 27.1704 67.5202 28.5628 67.5202 30.2804C67.5202 31.998 68.9126 33.3904 70.6302 33.3904Z" fill="#003A70"/>
<path d="M70.6302 39.9904C71.7016 39.9904 72.5702 39.1218 72.5702 38.0504C72.5702 36.9789 71.7016 36.1104 70.6302 36.1104C69.5587 36.1104 68.6902 36.9789 68.6902 38.0504C68.6902 39.1218 69.5587 39.9904 70.6302 39.9904Z" fill="#003A70"/>
<path d="M70.6301 46.9904C71.2763 46.9904 71.8001 46.4666 71.8001 45.8204C71.8001 45.1742 71.2763 44.6504 70.6301 44.6504C69.984 44.6504 69.4601 45.1742 69.4601 45.8204C69.4601 46.4666 69.984 46.9904 70.6301 46.9904Z" fill="#003A70"/>
<path d="M77.4602 28.4205C78.5316 28.4205 79.4002 27.552 79.4002 26.4805C79.4002 25.4091 78.5316 24.5405 77.4602 24.5405C76.3887 24.5405 75.5202 25.4091 75.5202 26.4805C75.5202 27.552 76.3887 28.4205 77.4602 28.4205Z" fill="#003A70"/>
<path d="M77.4602 36.1905C78.5316 36.1905 79.4002 35.322 79.4002 34.2505C79.4002 33.1791 78.5316 32.3105 77.4602 32.3105C76.3887 32.3105 75.5202 33.1791 75.5202 34.2505C75.5202 35.322 76.3887 36.1905 77.4602 36.1905Z" fill="#003A70"/>
<path d="M77.4602 43.1803C78.1063 43.1803 78.6302 42.6565 78.6302 42.0103C78.6302 41.3642 78.1063 40.8403 77.4602 40.8403C76.814 40.8403 76.2902 41.3642 76.2902 42.0103C76.2902 42.6565 76.814 43.1803 77.4602 43.1803Z" fill="#003A70"/>
<path d="M84.3002 31.4504C84.9463 31.4504 85.4702 30.9265 85.4702 30.2804C85.4702 29.6342 84.9463 29.1104 84.3002 29.1104C83.654 29.1104 83.1302 29.6342 83.1302 30.2804C83.1302 30.9265 83.654 31.4504 84.3002 31.4504Z" fill="#003A70"/>
<path d="M84.3002 39.2204C84.9463 39.2204 85.4702 38.6965 85.4702 38.0504C85.4702 37.4042 84.9463 36.8804 84.3002 36.8804C83.654 36.8804 83.1302 37.4042 83.1302 38.0504C83.1302 38.6965 83.654 39.2204 84.3002 39.2204Z" fill="#003A70"/>
<path d="M84.3001 46.6005C84.7309 46.6005 85.0801 46.2513 85.0801 45.8205C85.0801 45.3897 84.7309 45.0405 84.3001 45.0405C83.8694 45.0405 83.5201 45.3897 83.5201 45.8205C83.5201 46.2513 83.8694 46.6005 84.3001 46.6005Z" fill="#003A70"/>
</g>
<defs>
<linearGradient id="paint0_linear_1_8146" x1="84.3131" y1="14.7526" x2="14.5452" y2="84.5205" gradientUnits="userSpaceOnUse">
<stop/>
<stop offset="1" stop-color="#515151"/>
</linearGradient>
</defs>
</svg>
