<svg width="68" height="48" viewBox="0 0 68 48" fill="none" xmlns="http://www.w3.org/2000/svg">
<path d="M5.25305 35.262H4.64946L4.04752 38.6287H4.63379C6.0232 38.6287 6.64328 37.9064 6.64328 36.5516C6.64328 35.6973 6.1741 35.262 5.25305 35.262ZM4.48207 40.4189H3.72841L2.99371 44.6357H0.651093L2.6243 33.4718H5.72058C7.54454 33.4718 9.11866 34.176 9.11866 36.3504C9.11866 39.163 7.2444 40.4189 4.48207 40.4189Z" fill="#939191"/>
<path d="M12.9075 38.7099C12.0426 38.7099 11.1932 40.1504 11.1932 41.7369C11.1932 42.554 11.387 43.0339 11.7861 43.0339C12.4746 43.0339 13.4526 41.4639 13.8203 39.414L13.8847 39.062C13.7404 38.9482 13.4996 38.7099 12.9075 38.7099ZM15.0539 44.6353H12.8919L13.0848 43.513C12.7179 44.0902 12.1712 44.7969 10.9385 44.7969C9.91186 44.7969 8.91989 43.9937 8.91989 41.9777C8.91989 39.0784 10.6342 36.9469 12.6181 36.9469C13.7404 36.9469 14.1559 37.4112 14.3019 37.5563L14.3811 37.1085H16.3839L15.0539 44.6353Z" fill="#939191"/>
<path d="M21.0898 44.1731C19.9857 46.3814 18.8816 47.6784 16.318 48L16.0788 46.4308C17.0559 46.1257 18.0479 45.631 18.5938 44.5236L18.8156 44.075L17.5045 37.1098H19.7952L20.3707 41.2088L22.2607 37.1098H24.6462L21.0898 44.1731Z" fill="#939191"/>
<path d="M35.1234 44.6357H32.9613L33.842 39.671C33.9046 39.3519 33.8898 39.0303 33.5229 39.0303C32.8492 39.0303 31.6469 40.6324 31.3122 42.5545L30.9444 44.6357H28.7791L29.663 39.671C29.7249 39.3519 29.7117 39.0303 29.3414 39.0303C28.6686 39.0303 27.4688 40.6324 27.1299 42.5545L26.763 44.6357H24.6018L25.9302 37.109H28.0914L27.7879 38.8711C28.2687 38.0845 29.0215 36.9474 30.3177 36.9474C31.487 36.9474 32.0007 37.7011 31.9191 38.9033C32.3355 38.2123 33.1213 36.9474 34.4983 36.9474C35.8284 36.9474 36.3083 37.9254 36.0353 39.4615L35.1234 44.6357Z" fill="#939191"/>
<path d="M41.4156 38.4848C40.7436 38.4848 40.102 39.3349 39.8456 40.552C41.2713 40.3598 42.1363 40.0242 42.1363 39.1889C42.1363 38.7099 41.8468 38.4848 41.4156 38.4848ZM39.7335 41.7864C39.7664 42.6159 40.1194 43.0339 40.8392 43.0339C41.672 43.0339 42.4711 42.601 43.0656 42.2341L43.6584 43.6425C43.1612 44.0111 42.0884 44.7969 40.5358 44.7969C38.8536 44.7969 37.5088 43.9805 37.5088 41.7055C37.5088 39.062 38.965 36.9469 41.5294 36.9469C43.4506 36.9469 44.2826 37.7814 44.2826 39.062C44.2826 41.144 42.5848 41.6412 39.7335 41.7864Z" fill="#939191"/>
<path d="M51.4573 44.6357H49.2952L50.1759 39.671C50.241 39.3519 50.2245 39.0303 49.8568 39.0303C49.1839 39.0303 47.9817 40.6324 47.6461 42.5545L47.2791 44.6357H45.1154L46.4447 37.109H48.6075L48.3041 38.8711C48.784 38.0845 49.536 36.9474 50.8331 36.9474C52.1623 36.9474 52.6422 37.9254 52.3725 39.4615L51.4573 44.6357Z" fill="#939191"/>
<path d="M58.1854 38.7099H57.0648L56.4093 42.4246C56.3417 42.7462 56.4546 42.9045 56.6954 42.9045C56.9197 42.9045 57.097 42.8426 57.3056 42.7462L57.5282 44.2345C57.2075 44.4431 56.5989 44.7969 55.7339 44.7969C54.6142 44.7969 53.9586 44.0902 54.2283 42.5705L54.9028 38.7099H54.1013L54.3874 37.1085H55.1897L55.6375 35.4751L57.7212 35.0257L57.3509 37.1085H58.4732L58.1854 38.7099Z" fill="#939191"/>
<path d="M64.2227 39.3992C63.7593 39.0784 63.0213 38.7272 62.4474 38.7272C61.9971 38.7272 61.692 38.8863 61.692 39.2549C61.692 39.5905 62.0301 39.7373 62.4787 39.9269L62.8943 40.1034C63.6628 40.4233 64.5129 40.9354 64.5129 42.2811C64.5129 43.8824 63.6628 44.7969 61.7407 44.7969C60.1723 44.7969 59.2571 44.1067 58.6823 43.6919L59.53 42.2028C60.0915 42.6167 60.9714 43.0174 61.5494 43.0174C62.0466 43.0174 62.2519 42.8426 62.2519 42.474C62.2519 42.1055 61.9007 41.9438 61.4529 41.7682L61.02 41.5942C60.2532 41.2891 59.4344 40.7762 59.4344 39.4454C59.4344 37.7171 60.766 36.9477 62.4292 36.9477C63.7749 36.9477 64.6094 37.6214 64.992 37.9076L64.2227 39.3992Z" fill="#939191"/>
<path d="M35.1443 24.2471H30.4748L30.0212 26.8429H33.6378L33.3022 28.7674H29.6881L28.8503 33.4873H26.5061L28.4834 22.3234H35.4948L35.1443 24.2471Z" fill="#939191"/>
<path d="M38.0958 27.5595C37.2308 27.5595 36.3815 29.0017 36.3815 30.5865C36.3815 31.4045 36.5736 31.8844 36.9743 31.8844C37.6629 31.8844 38.6408 30.316 39.0069 28.2653L39.0729 27.9132C38.9294 27.8002 38.6895 27.5595 38.0958 27.5595ZM40.2405 33.4857H38.0785L38.2714 32.3643C37.9036 32.9415 37.3594 33.6465 36.125 33.6465C35.1001 33.6465 34.1081 32.845 34.1081 30.8289C34.1081 27.9289 35.8224 25.7982 37.8055 25.7982C38.9294 25.7982 39.3442 26.2632 39.4893 26.4067L39.5693 25.959H41.5714L40.2405 33.4857Z" fill="#939191"/>
<path d="M47.5653 28.2496C47.0994 27.9289 46.3631 27.576 45.7867 27.576C45.3381 27.576 45.033 27.7376 45.033 28.1045C45.033 28.4409 45.3711 28.5844 45.8172 28.7774L46.2336 28.9547C47.003 29.2746 47.8523 29.785 47.8523 31.1315C47.8523 32.7345 47.003 33.6465 45.0817 33.6465C43.5117 33.6465 42.6005 32.958 42.0217 32.5432L42.8727 31.0524C43.4309 31.468 44.3132 31.8687 44.8896 31.8687C45.3835 31.8687 45.5946 31.6931 45.5946 31.3245C45.5946 30.9559 45.2417 30.7959 44.7931 30.6186L44.361 30.4438C43.5933 30.1387 42.7754 29.6275 42.7754 28.2975C42.7754 26.5683 44.1054 25.799 45.7702 25.799C47.1143 25.799 47.9479 26.471 48.333 26.758L47.5653 28.2496Z" fill="#939191"/>
<path d="M53.5699 27.5595H52.4493L51.7913 31.2775C51.7286 31.5966 51.8391 31.7574 52.079 31.7574C52.305 31.7574 52.4806 31.6922 52.6884 31.5966L52.911 33.0849C52.5911 33.2944 51.9826 33.6465 51.1192 33.6465C49.9995 33.6465 49.3406 32.9415 49.6144 31.421L50.2872 27.5595H49.4841L49.7735 25.959H50.5742L51.0228 24.3255L53.1048 23.8761L52.7354 25.959H53.8576L53.5699 27.5595Z" fill="#939191"/>
<path d="M58.1005 27.336C57.4285 27.336 56.7861 28.1845 56.5322 29.4007C57.957 29.2094 58.8212 28.8738 58.8212 28.041C58.8212 27.5595 58.5342 27.336 58.1005 27.336ZM56.4184 30.6351C56.4514 31.468 56.8034 31.8844 57.5249 31.8844C58.3586 31.8844 59.1576 31.4523 59.7513 31.0845L60.3433 32.4929C59.8461 32.8615 58.7725 33.6465 57.2199 33.6465C55.5385 33.6465 54.1928 32.8302 54.1928 30.5568C54.1928 27.9132 55.6499 25.799 58.2151 25.799C60.1347 25.799 60.9667 26.6318 60.9667 27.9132C60.9667 29.9953 59.2697 30.4917 56.4184 30.6351Z" fill="#939191"/>
<path d="M67.086 28.1383C65.9968 28.1383 64.7459 29.0668 64.3311 31.4061L63.9625 33.4873H61.8005L63.1305 25.9598H65.2439L64.9726 27.5454C65.4666 26.4248 66.0446 25.7998 67.5024 25.7998L67.086 28.1383Z" fill="#939191"/>
<path d="M34.4395 15.5252V15.5631C34.4362 16.1007 34.0115 16.64 33.1705 17.0457L4.98319 30.6982C3.28869 31.5203 2.66201 30.8507 3.58471 29.2115L8.74243 20.0472C9.49032 18.7097 9.91827 17.1677 9.91827 15.5252C9.91827 13.8818 9.49032 12.339 8.74243 11.0032L3.58471 1.83889C2.66201 0.198807 3.28869 -0.470749 4.98319 0.351353L33.1705 14.003C34.0115 14.4128 34.4362 14.9496 34.4395 15.4873V15.5252Z" fill="#939191"/>
</svg>
