<svg width="157" height="40" viewBox="0 0 157 40" fill="none" xmlns="http://www.w3.org/2000/svg">
<path d="M63.5581 17.0971L59.7767 16.3864C57.2795 15.8889 56.7087 15.6046 56.7087 14.2543C56.7087 12.9039 57.5649 12.3354 60.3474 12.3354C63.4867 12.3354 64.4143 13.0461 64.4143 15.3204V15.6757L69.1232 14.3964C68.7665 10.7007 66.1266 8 60.4901 8C54.3542 8 51.9998 11.1982 51.9998 14.4675C51.9998 17.8078 53.7121 19.7978 57.7789 20.5086L61.5604 21.1482C64.557 21.6457 64.9137 22.1432 64.9137 23.5646C64.9137 24.9861 64.2716 25.5546 61.489 25.5546C57.6362 25.5546 56.7801 24.915 56.7801 22.5696V22.2143L52.0711 23.4936C52.4278 27.6868 55.3531 29.89 61.2036 29.89C67.2682 29.89 69.5513 26.8339 69.5513 23.4225C69.6227 20.3664 68.053 18.0211 63.5581 17.0971Z" fill="black"/>
<path d="M87.2104 20.7103V20.355C87.2104 16.446 84.0711 13.8164 79.7902 13.8164C74.4391 13.8164 71.3712 17.0857 71.3712 22.2028C71.3712 27.2489 74.2251 30.4471 79.5048 30.4471C83.9284 30.4471 87.139 27.8175 87.139 23.9085V23.5532H82.3587V23.7664C82.3587 25.5432 81.3598 26.1828 79.3621 26.1828C77.079 26.1828 76.0801 25.1168 76.0801 22.1318C76.0801 19.1468 77.079 18.0807 79.3621 18.0807C81.3598 18.0807 82.3587 18.6493 82.3587 20.4971V20.7814H87.2104V20.7103Z" fill="black"/>
<path d="M96.8416 13.7451C92.3467 13.7451 89.3501 16.2326 89.3501 20.0705V20.4258L93.9163 20.0705C93.9163 18.4358 94.7012 17.9383 96.6276 17.9383C98.4826 17.9383 99.5528 18.2937 99.5528 20.1415V20.639L94.059 21.4919C90.777 21.9894 88.9933 23.553 88.9933 25.9694C88.9933 28.8833 91.2051 30.3758 94.059 30.3758C97.0556 30.3758 98.6253 29.0965 99.5528 27.8883H99.7669V30.0205H104.19V20.568C104.048 16.3748 101.551 13.7451 96.8416 13.7451ZM95.5573 26.7512C94.1304 26.7512 93.4883 26.4669 93.4883 25.614C93.4883 24.9744 93.9163 24.619 94.9152 24.4769L99.4815 23.7662C99.4815 26.2537 97.4837 26.7512 95.5573 26.7512Z" fill="black"/>
<path d="M106.902 10.0498V30.0919H111.683V8.77051L106.902 10.0498Z" fill="black"/>
<path d="M114.679 10.0498V30.0919H119.459V8.77051L114.679 10.0498Z" fill="black"/>
<path fill-rule="evenodd" clip-rule="evenodd" d="M129.876 13.7451C124.739 13.7451 121.671 17.0144 121.671 22.0605C121.671 27.1065 124.739 30.3758 129.876 30.3758C135.013 30.3758 138.009 27.1065 138.009 22.0605C138.009 17.0144 135.013 13.7451 129.876 13.7451ZM130.022 26.4805C127.585 26.4805 125.602 24.4978 125.602 22.0605C125.602 19.6233 127.585 17.6405 130.022 17.6405C130.391 17.6405 130.761 17.686 131.124 17.7769C131.198 17.7996 131.266 17.8507 131.3 17.9189L131.371 18.0572C131.898 19.0843 132.801 19.8689 133.891 20.2482C134.005 20.288 134.078 20.3902 134.078 20.5095V23.6058C134.078 23.7251 134.005 23.8274 133.891 23.8671C132.8 24.2465 131.897 25.03 131.367 26.056L131.295 26.1964C131.261 26.2703 131.192 26.3214 131.119 26.3385C130.755 26.435 130.386 26.4805 130.022 26.4805Z" fill="black"/>
<path d="M149.568 13.7451C147.142 13.7451 145.287 14.669 144.431 16.4458H144.288V14.1005H139.865V35.4219L144.645 34.1426V27.9594H144.788C145.501 29.3097 147.071 30.3758 149.639 30.3758C153.991 30.3758 156.417 27.1065 156.417 22.0605C156.489 17.0144 154.063 13.7451 149.568 13.7451ZM148.141 26.3247C145.858 26.3247 144.645 25.543 144.645 23.3398V20.7812C144.645 18.649 145.929 17.7962 148.141 17.7962C150.923 17.7962 151.637 19.1465 151.637 22.0605C151.637 24.9744 150.923 26.3247 148.141 26.3247Z" fill="black"/>
<path d="M28.1612 2.38531C24.9851 5.65771 21.8089 8.91808 18.6328 12.1905C18.5967 12.2145 18.5726 12.2386 18.5365 12.2747L11.6188 19.1924C10.9571 19.8541 10.9571 20.9489 11.6188 21.6106L18.1756 28.1675L10.1029 36.6252C8.85169 35.771 7.66063 34.7845 6.48161 33.5934C-1.9761 25.1477 -2.26484 14.7049 6.25302 6.17504C13.0023 -0.574283 20.9668 -1.71722 28.1612 2.38531Z" fill="url(#paint0_linear_1_1480)"/>
<path d="M33.8398 33.7496C27.1025 40.4749 19.1862 41.678 12.0399 37.8161L14.8791 34.8445C17.0567 32.5947 19.2223 30.3569 21.3999 28.1072L23.5895 25.9175L27.8845 21.6225C28.5462 20.9608 28.5462 19.866 27.8845 19.2043L25.9115 17.2313L21.3758 12.6956L29.3643 4.33416L30.0621 3.6123C31.2411 4.44243 32.4202 5.441 33.539 6.55987C41.9245 14.9213 42.2855 25.2919 33.8398 33.7496Z" fill="url(#paint1_linear_1_1480)"/>
<defs>
<linearGradient id="paint0_linear_1_1480" x1="23.1101" y1="-13.446" x2="-30.6895" y2="104.101" gradientUnits="userSpaceOnUse">
<stop stop-color="#00DECA"/>
<stop offset="0.37798" stop-color="#3A8AFA"/>
<stop offset="1" stop-color="#1A6AF4"/>
</linearGradient>
<linearGradient id="paint1_linear_1_1480" x1="34.9878" y1="-9.74648" x2="-18.4811" y2="107.016" gradientUnits="userSpaceOnUse">
<stop stop-color="#00DECA"/>
<stop offset="0.37798" stop-color="#3A8AFA"/>
<stop offset="1" stop-color="#1A6AF4"/>
</linearGradient>
</defs>
</svg>
