<svg width="32" height="32" viewBox="0 0 32 32" fill="none" xmlns="http://www.w3.org/2000/svg">
<circle cx="16.0001" cy="16" r="16" fill="#E5F1FF"/>
<g clip-path="url(#clip0_1_3058)">
<path d="M10.0001 15.625V18.625C10.0001 19.2475 10.5026 19.75 11.1251 19.75C11.7476 19.75 12.2501 19.2475 12.2501 18.625V15.625C12.2501 15.0025 11.7476 14.5 11.1251 14.5C10.5026 14.5 10.0001 15.0025 10.0001 15.625ZM14.5001 15.625V18.625C14.5001 19.2475 15.0026 19.75 15.6251 19.75C16.2476 19.75 16.7501 19.2475 16.7501 18.625V15.625C16.7501 15.0025 16.2476 14.5 15.6251 14.5C15.0026 14.5 14.5001 15.0025 14.5001 15.625ZM9.62506 23.5H21.6251C22.2476 23.5 22.7501 22.9975 22.7501 22.375C22.7501 21.7525 22.2476 21.25 21.6251 21.25H9.62506C9.00256 21.25 8.50006 21.7525 8.50006 22.375C8.50006 22.9975 9.00256 23.5 9.62506 23.5ZM19.0001 15.625V18.625C19.0001 19.2475 19.5026 19.75 20.1251 19.75C20.7476 19.75 21.2501 19.2475 21.2501 18.625V15.625C21.2501 15.0025 20.7476 14.5 20.1251 14.5C19.5026 14.5 19.0001 15.0025 19.0001 15.625ZM14.9276 8.11749L9.00256 11.2375C8.69506 11.395 8.50006 11.7175 8.50006 12.0625C8.50006 12.58 8.92006 13 9.43756 13H21.8201C22.3301 13 22.7501 12.58 22.7501 12.0625C22.7501 11.7175 22.5551 11.395 22.2476 11.2375L16.3226 8.11749C15.8876 7.88499 15.3626 7.88499 14.9276 8.11749Z" fill="#2277FC"/>
</g>
<defs>
<clipPath id="clip0_1_3058">
<rect width="18" height="18" fill="white" transform="translate(7.00006 7)"/>
</clipPath>
</defs>
</svg>
