<svg width="100" height="100" viewBox="0 0 100 100" fill="none" xmlns="http://www.w3.org/2000/svg">
<g clip-path="url(#clip0_1_8049)">
<path d="M49.9989 -1.20234e-05C63.3535 -1.08498e-05 75.9102 5.20104 85.3535 14.6443C94.799 24.0875 100 36.6442 100 49.9989C100 63.3535 94.799 75.9125 85.3557 85.3557C75.9125 94.799 63.3557 100 49.9989 100C36.642 100 24.0875 94.7989 14.6443 85.3557C5.20101 75.9125 -2.73306e-05 63.3557 -2.61692e-05 50.0011C-2.50077e-05 36.6465 5.20102 24.0897 14.6443 14.6465C24.0875 5.20104 36.6442 -1.3197e-05 49.9989 -1.20234e-05ZM49.9989 96.6027C62.4461 96.6027 74.1512 91.7548 82.953 82.953C91.7548 74.1512 96.6027 62.4483 96.6027 49.9989C96.6027 37.5494 91.7548 25.8465 82.953 17.0448C74.1512 8.24299 62.4483 3.39508 49.9989 3.39508C37.5494 3.39508 25.8465 8.24299 17.0448 17.0448C8.24297 25.8465 3.39507 37.5494 3.39507 49.9989C3.39507 62.4483 8.24297 74.149 17.0447 82.953C25.8487 91.7548 37.5517 96.6027 49.9989 96.6027Z" fill="url(#paint0_linear_1_8049)"/>
<ellipse cx="49.9995" cy="49.9995" rx="46.5517" ry="46.5517" fill="#171717"/>
<path d="M83.9057 44.9386L68.3734 24.7617C67.2173 23.2578 65.4281 22.396 63.4663 22.396C61.5044 22.396 59.7165 23.2578 58.5591 24.7617L56.871 26.9562L55.1815 24.7617C54.0241 23.2578 52.2362 22.396 50.2744 22.396C48.3126 22.396 46.5246 23.2578 45.3672 24.7617L43.6983 26.9295L42.0293 24.7605C40.8719 23.2578 39.0827 22.396 37.1209 22.396C35.159 22.396 33.3711 23.2578 32.2137 24.7617L16.6827 44.9386C14.4728 47.8104 14.4728 51.6679 16.6827 54.5397L32.2137 74.7178C33.3711 76.2205 35.159 77.0835 37.1209 77.0835C39.0827 77.0835 40.8706 76.2217 42.028 74.7178L50.2936 63.9794L51.9996 66.1958H51.9984C52.0047 66.203 52.0111 66.2103 52.0175 66.2188L58.5591 74.7178C59.7165 76.2205 61.5044 77.0835 63.4663 77.0835C65.4281 77.0835 67.216 76.2217 68.3734 74.7178L83.9044 54.5409C86.1156 51.6691 86.1156 47.8104 83.9057 44.9386ZM47.8458 26.4792C48.4187 25.7351 49.3037 25.3091 50.2744 25.3091C51.2451 25.3091 52.1301 25.7364 52.703 26.4792L54.9705 29.4251L50.2949 35.5001L45.5987 29.3996L47.8458 26.4792ZM39.5495 72.9991C38.9766 73.7431 38.0916 74.1692 37.1209 74.1692C36.1502 74.1692 35.2652 73.7419 34.6922 72.9991L19.1612 52.821C17.7417 50.9772 17.7417 48.4999 19.1612 46.6561L34.6922 26.4792C35.2652 25.7351 36.1502 25.3091 37.1209 25.3091C38.0916 25.3091 38.9766 25.7364 39.5495 26.4792L41.7965 29.3984L29.835 44.9386C27.625 47.8104 27.625 51.6679 29.8401 54.5458L30.7507 55.7171L30.7519 55.7159L38.7694 66.1958C39.7899 67.5224 41.3042 68.349 42.9936 68.525L39.5495 72.9991ZM46.109 64.4782L46.1064 64.477C45.5335 65.2211 44.6485 65.6471 43.6778 65.6471C42.7071 65.6471 41.8221 65.2199 41.2517 64.4795L33.0079 53.7034L33.0041 53.7058L32.3148 52.8197C30.8952 50.976 30.8952 48.4986 32.3148 46.6549L43.6983 31.8684L48.3944 37.969L43.0294 44.9386C40.8195 47.8104 40.8195 51.6679 43.0294 54.5397L48.3944 61.5093L46.109 64.4782ZM50.2936 40.4378L55.0805 46.6573C56.5001 48.5011 56.5001 50.9784 55.0805 52.8222L50.2936 59.0417L45.5066 52.8222C44.0871 50.9784 44.0871 48.5011 45.5066 46.6573L50.2936 40.4378ZM57.5603 54.5397C59.7702 51.6679 59.7702 47.8104 57.5603 44.9386L52.1953 37.969L56.871 31.8939L68.2353 46.6573C69.6549 48.5011 69.6549 50.9784 68.2289 52.8307L66.409 55.2316L59.3354 64.477C58.7625 65.2211 57.8775 65.6471 56.9068 65.6471C55.9463 65.6471 55.0703 65.2296 54.4973 64.5001L52.1953 61.5093L57.5603 54.5397ZM81.4272 52.8222L65.8949 72.9991C65.322 73.7431 64.437 74.1692 63.4663 74.1692C62.4956 74.1692 61.6106 73.7419 61.0376 72.9991L57.5936 68.5238C59.2817 68.3466 60.7934 67.52 61.8152 66.1921L67.8926 58.2478L67.8989 58.2527L68.8952 56.9369L70.059 55.4161L70.0513 55.4112L70.7113 54.5397C72.9212 51.6679 72.9212 47.8104 70.7113 44.9386L58.7714 29.4251L61.0389 26.4792C61.6119 25.7351 62.4969 25.3091 63.4676 25.3091C64.4382 25.3091 65.3232 25.7364 65.8962 26.4792L81.4272 46.6573C82.8455 48.5011 82.8455 50.9784 81.4272 52.8222Z" fill="url(#paint1_linear_1_8049)"/>
<path opacity="0.6" d="M43.6776 68.5615C43.4422 68.5615 43.2095 68.5481 42.9806 68.5239L39.6452 72.8862L42.1595 74.571L48.2573 66.6255C47.1063 67.8587 45.4412 68.5615 43.6776 68.5615Z" fill="url(#paint2_linear_1_8049)"/>
<path opacity="0.6" d="M56.8917 68.5613C57.127 68.5613 57.3598 68.5479 57.5887 68.5237L60.924 72.8861L58.4097 74.5708L52.3426 66.6338C53.4936 67.867 55.1281 68.5613 56.8917 68.5613Z" fill="url(#paint3_linear_1_8049)"/>
<path opacity="0.6" d="M48.3705 61.4917L50.3106 64.0043L47.3614 67.7585L45.4226 65.3188L48.3705 61.4917Z" fill="url(#paint4_linear_1_8049)"/>
<path d="M41.7971 29.3975L43.7053 31.887L36.8005 40.886L34.3859 39.0763L41.7971 29.3975Z" fill="url(#paint5_linear_1_8049)"/>
<path d="M48.3968 37.9629L50.2845 40.4512L45.8825 46.2264L43.468 44.4166L48.3968 37.9629Z" fill="url(#paint6_linear_1_8049)"/>
<path d="M54.9712 29.4219L56.8704 31.898L52.2011 37.9621L50.2981 35.4896L54.9712 29.4219Z" fill="url(#paint7_linear_1_8049)"/>
</g>
<defs>
<linearGradient id="paint0_linear_1_8049" x1="85.3553" y1="14.6446" x2="14.6445" y2="85.3554" gradientUnits="userSpaceOnUse">
<stop/>
<stop offset="1" stop-color="#515151"/>
</linearGradient>
<linearGradient id="paint1_linear_1_8049" x1="28.0426" y1="70.8581" x2="70.2225" y2="26.4157" gradientUnits="userSpaceOnUse">
<stop stop-color="#FF8506"/>
<stop offset="0.5805" stop-color="#FD3947"/>
<stop offset="1" stop-color="#FB0078"/>
</linearGradient>
<linearGradient id="paint2_linear_1_8049" x1="46.326" y1="66.5648" x2="41.4831" y2="73.7861" gradientUnits="userSpaceOnUse">
<stop stop-color="#78005B"/>
<stop offset="0.3483" stop-color="#7A025A" stop-opacity="0.6517"/>
<stop offset="0.51" stop-color="#820955" stop-opacity="0.49"/>
<stop offset="0.6332" stop-color="#8E154E" stop-opacity="0.3668"/>
<stop offset="0.7369" stop-color="#A12643" stop-opacity="0.2631"/>
<stop offset="0.8283" stop-color="#B83C36" stop-opacity="0.1717"/>
<stop offset="0.9111" stop-color="#D65725" stop-opacity="0.0889"/>
<stop offset="0.9857" stop-color="#F87711" stop-opacity="0.0143"/>
<stop offset="1" stop-color="#FF7E0D" stop-opacity="0"/>
</linearGradient>
<linearGradient id="paint3_linear_1_8049" x1="59.0274" y1="73.0275" x2="54.4725" y2="66.1248" gradientUnits="userSpaceOnUse">
<stop stop-color="#FF7E0D" stop-opacity="0"/>
<stop offset="0.00928743" stop-color="#F97811" stop-opacity="0.0127"/>
<stop offset="0.0651" stop-color="#D65825" stop-opacity="0.0888"/>
<stop offset="0.1269" stop-color="#B93D36" stop-opacity="0.1729"/>
<stop offset="0.1949" stop-color="#A12643" stop-opacity="0.2657"/>
<stop offset="0.272" stop-color="#8F154E" stop-opacity="0.3707"/>
<stop offset="0.3632" stop-color="#820955" stop-opacity="0.495"/>
<stop offset="0.4822" stop-color="#7A025A" stop-opacity="0.6573"/>
<stop offset="0.7336" stop-color="#78005B"/>
</linearGradient>
<linearGradient id="paint4_linear_1_8049" x1="46.4978" y1="66.5297" x2="50.1809" y2="60.9481" gradientUnits="userSpaceOnUse">
<stop stop-color="#FF7E0D" stop-opacity="0"/>
<stop offset="0.0133" stop-color="#F97910" stop-opacity="0.0192"/>
<stop offset="0.1144" stop-color="#D25427" stop-opacity="0.1659"/>
<stop offset="0.219" stop-color="#B1363A" stop-opacity="0.3175"/>
<stop offset="0.3263" stop-color="#981E48" stop-opacity="0.4731"/>
<stop offset="0.4375" stop-color="#860D53" stop-opacity="0.6344"/>
<stop offset="0.5551" stop-color="#7B0359" stop-opacity="0.8048"/>
<stop offset="0.6897" stop-color="#78005B"/>
</linearGradient>
<linearGradient id="paint5_linear_1_8049" x1="34.77" y1="39.4399" x2="43.1146" y2="30.6476" gradientUnits="userSpaceOnUse">
<stop stop-color="#FF4630" stop-opacity="0"/>
<stop offset="0.5722" stop-color="#B31F48" stop-opacity="0.5722"/>
<stop offset="1" stop-color="#78005B"/>
</linearGradient>
<linearGradient id="paint6_linear_1_8049" x1="44.081" y1="44.9981" x2="49.6393" y2="39.1416" gradientUnits="userSpaceOnUse">
<stop stop-color="#FF4630" stop-opacity="0"/>
<stop offset="0.5722" stop-color="#B31F48" stop-opacity="0.5722"/>
<stop offset="1" stop-color="#78005B"/>
</linearGradient>
<linearGradient id="paint7_linear_1_8049" x1="50.6446" y1="36.4844" x2="56.2212" y2="30.6086" gradientUnits="userSpaceOnUse">
<stop stop-color="#FF4630" stop-opacity="0"/>
<stop offset="0.5722" stop-color="#B31F48" stop-opacity="0.5722"/>
<stop offset="1" stop-color="#78005B"/>
</linearGradient>
<clipPath id="clip0_1_8049">
<rect width="100" height="100" fill="white"/>
</clipPath>
</defs>
</svg>
