<svg width="100" height="100" viewBox="0 0 100 100" fill="none" xmlns="http://www.w3.org/2000/svg">
<path d="M49.4282 0.303223C62.6047 0.303224 74.994 5.43493 84.3114 14.7522C93.631 24.0696 98.7626 36.4589 98.7626 49.6354C98.7626 62.8121 93.6308 75.2036 84.3136 84.5209C74.9963 93.8382 62.607 98.9698 49.4282 98.9698C36.2494 98.9698 23.8623 93.8382 14.545 84.5209C5.22762 75.2036 0.0959309 62.8142 0.095932 49.6377C0.0959332 36.461 5.22762 24.0718 14.545 14.7545C23.8623 5.43491 36.2516 0.303221 49.4282 0.303223ZM49.4282 95.6178C61.7094 95.6178 73.2584 90.8346 81.9428 82.1502C90.6274 73.4658 95.4106 61.9189 95.4106 49.6354C95.4106 37.352 90.6274 25.8052 81.9428 17.1208C73.2584 8.43633 61.7116 3.65305 49.4282 3.65305C37.1447 3.65305 25.5979 8.43631 16.9135 17.1208C8.22902 25.8052 3.44576 37.352 3.44576 49.6354C3.44576 61.9189 8.22902 73.4636 16.9135 82.1502C25.6 90.8346 37.147 95.6178 49.4282 95.6178Z" fill="url(#paint0_linear_1_8000)"/>
<path d="M49.4293 95.7869C74.9175 95.7869 95.5798 75.1246 95.5798 49.6364C95.5798 24.1481 74.9175 3.48584 49.4293 3.48584C23.9411 3.48584 3.27878 24.1481 3.27878 49.6364C3.27878 75.1246 23.9411 95.7869 49.4293 95.7869Z" fill="#333333"/>
<mask id="mask0_1_8000" style="mask-type:alpha" maskUnits="userSpaceOnUse" x="3" y="3" width="93" height="93">
<path d="M49.4793 95.8372C74.9675 95.8372 95.6298 75.1749 95.6298 49.6867C95.6298 24.1984 74.9675 3.53613 49.4793 3.53613C23.991 3.53613 3.32874 24.1984 3.32874 49.6867C3.32874 75.1749 23.991 95.8372 49.4793 95.8372Z" fill="black"/>
</mask>
<g mask="url(#mask0_1_8000)">
<path d="M49.4808 95.8367C74.969 95.8367 95.6313 75.1744 95.6313 49.6862C95.6313 24.1979 74.969 3.53564 49.4808 3.53564C23.9925 3.53564 3.33023 24.1979 3.33023 49.6862C3.33023 75.1744 23.9925 95.8367 49.4808 95.8367Z" fill="white"/>
<g clip-path="url(#clip0_1_8000)">
<path d="M27.9451 51.7486V42.0645H29.8521C30.1963 42.6021 30.896 43.6862 31.951 45.3167C33.006 46.9473 33.6483 47.9388 33.8778 48.2914C33.944 48.3928 34.0565 48.5646 34.2155 48.807C34.3788 49.045 34.4936 49.2146 34.5598 49.316C34.5289 47.8044 34.5135 47.02 34.5135 46.9627V42.0645H36.1489V51.7486H34.2155L29.8388 44.94L29.521 44.4178C29.5563 45.5812 29.5739 46.3986 29.5739 46.8702V51.7486H27.9451Z" fill="#050607"/>
<path d="M42.8211 51.8877C41.6513 51.8877 40.7398 51.5528 40.0865 50.8829C39.4376 50.2087 39.1132 49.2788 39.1132 48.0934C39.1132 46.9388 39.4199 46.0199 40.0335 45.3368C40.6471 44.6538 41.4836 44.31 42.543 44.3057C43.545 44.3057 44.3219 44.6185 44.8737 45.2443C45.4299 45.8701 45.708 46.7008 45.708 47.7364C45.708 47.8113 45.7058 47.9325 45.7014 48.1C45.7014 48.2674 45.7014 48.3908 45.7014 48.4701H40.8612C40.8789 49.1488 41.0642 49.6754 41.4174 50.05C41.7749 50.4202 42.2649 50.6053 42.8873 50.6053C43.6818 50.6053 44.4455 50.3982 45.1783 49.9839L45.4233 51.2134C44.6949 51.663 43.8276 51.8877 42.8211 51.8877ZM40.8943 47.3794H44.0725C44.0725 46.7889 43.9379 46.335 43.6686 46.0177C43.3993 45.7004 43.0263 45.5417 42.5496 45.5417C42.1038 45.5417 41.7264 45.696 41.4174 46.0045C41.1128 46.313 40.9384 46.7713 40.8943 47.3794Z" fill="#050607"/>
<path d="M51.9694 51.8487C51.475 51.8487 51.0623 51.7915 50.7312 51.6768C50.4046 51.5579 50.1486 51.3728 49.9631 51.1216C49.7777 50.8704 49.6453 50.5751 49.5659 50.2358C49.4908 49.8921 49.4533 49.469 49.4533 48.9666V45.5358H48.2615L48.3277 44.5971L49.5725 44.4848L50.1287 42.5149L51.1881 42.5083V44.4848H52.9957V45.5358H51.1881V48.9997C51.1881 49.5505 51.2676 49.9428 51.4265 50.1763C51.5854 50.4099 51.8789 50.5267 52.3071 50.5267C52.5587 50.5267 52.828 50.5046 53.1149 50.4605L53.1612 51.7033C53.1524 51.7033 53.0973 51.7143 52.9957 51.7363C52.8986 51.7539 52.8037 51.7694 52.711 51.7826C52.6227 51.8003 52.5079 51.8157 52.3667 51.8289C52.2254 51.8421 52.093 51.8487 51.9694 51.8487Z" fill="#050607"/>
<path d="M56.5029 51.7486V50.5984L61.6212 43.4923H56.6817V42.0645H63.74V43.3667L58.7144 50.3208H63.7731L63.7665 51.7486H56.5029Z" fill="#050607"/>
<path d="M70.6951 51.8877C69.5255 51.8877 68.6137 51.5528 67.9604 50.8829C67.3117 50.2087 66.9874 49.2788 66.9874 48.0934C66.9874 46.9388 67.2936 46.0199 67.9073 45.3368C68.521 44.6538 69.3575 44.31 70.4168 44.3057C71.419 44.3057 72.196 44.6185 72.7478 45.2443C73.3037 45.8701 73.582 46.7008 73.582 47.7364C73.582 47.8113 73.5796 47.9325 73.5756 48.1C73.5756 48.2674 73.5756 48.3908 73.5756 48.4701H68.7351C68.7526 49.1488 68.9381 49.6754 69.2916 50.05C69.6491 50.4202 70.1391 50.6053 70.7616 50.6053C71.5561 50.6053 72.3196 50.3982 73.0523 49.9839L73.2973 51.2134C72.5687 51.663 71.7013 51.8877 70.6951 51.8877ZM68.7683 47.3794H71.9463C71.9463 46.7889 71.8121 46.335 71.5426 46.0177C71.2731 45.7004 70.9004 45.5417 70.4238 45.5417C69.9776 45.5417 69.6001 45.696 69.2916 46.0045C68.9865 46.313 68.8126 46.7713 68.7683 47.3794Z" fill="#050607"/>
<path d="M76.9433 51.7495V44.4847H78.4004L78.6256 45.5952C79.1022 44.8328 79.7928 44.4517 80.6976 44.4517C80.8878 44.4517 81.0423 44.4605 81.1613 44.4781L81.1345 45.9257C80.9583 45.8993 80.7752 45.8861 80.585 45.8861C79.9451 45.8861 79.4662 46.0558 79.1483 46.3951C78.835 46.7344 78.6781 47.2059 78.6781 47.8097V51.7495H76.9433Z" fill="#050607"/>
<path d="M87.4535 50.5722C88.0404 50.5722 88.4819 50.3585 88.7777 49.931C89.0734 49.5036 89.2216 48.891 89.2216 48.0934C89.2216 47.2869 89.0734 46.6721 88.7777 46.2491C88.4819 45.826 88.0363 45.6145 87.4401 45.6145C86.8533 45.6145 86.4094 45.8282 86.1095 46.2557C85.8138 46.6787 85.6656 47.2935 85.6656 48.1C85.6656 48.8932 85.8161 49.5036 86.116 49.931C86.4164 50.3585 86.862 50.5722 87.4535 50.5722ZM87.4069 51.8877C86.33 51.8877 85.4825 51.5396 84.8647 50.8433C84.2464 50.147 83.9378 49.2303 83.9378 48.0934C83.9378 46.9212 84.2464 45.9979 84.8647 45.3236C85.4825 44.645 86.3545 44.3057 87.4798 44.3057C88.566 44.3057 89.4159 44.6516 90.0289 45.3435C90.6473 46.0309 90.9564 46.9476 90.9564 48.0934C90.9564 49.2524 90.6449 50.1756 90.0225 50.8631C89.4001 51.5462 88.5286 51.8877 87.4069 51.8877Z" fill="#050607"/>
<path fill-rule="evenodd" clip-rule="evenodd" d="M88.7701 50.6235L85.1919 45.9229L85.9415 45.354L89.5197 50.0547L88.7701 50.6235Z" fill="#050607"/>
<path d="M29.3472 59.3277C28.8837 59.3277 28.5223 59.1899 28.2629 58.9145C28.0055 58.639 27.8767 58.2452 27.8767 57.7329C27.8767 57.2371 28.0119 56.8524 28.2823 56.5788C28.5544 56.3052 28.9122 56.1685 29.3555 56.1685C29.7104 56.1685 30.0103 56.2446 30.2549 56.3971L30.0838 56.9121C29.8337 56.7817 29.601 56.7166 29.3858 56.7166C29.1412 56.7166 28.9481 56.8038 28.8064 56.9782C28.6667 57.1527 28.5968 57.407 28.5968 57.7412C28.5968 58.079 28.6657 58.3361 28.8037 58.5123C28.9435 58.6886 29.1403 58.7768 29.3941 58.7768C29.6589 58.7768 29.9137 58.6987 30.1583 58.5427L30.2273 59.0908C30.1004 59.1752 29.9688 59.2359 29.8328 59.2725C29.6967 59.3093 29.5348 59.3277 29.3472 59.3277Z" fill="#5C6097"/>
<path d="M36.1648 59.3277C35.8833 59.3277 35.6553 59.2505 35.4805 59.0963C35.3077 58.9402 35.2212 58.7162 35.2212 58.4242C35.2212 58.1103 35.3242 57.878 35.5302 57.7274C35.7362 57.575 36.0471 57.4786 36.4627 57.4382C36.5197 57.4308 36.5813 57.4235 36.6476 57.4161C36.7138 57.4088 36.7883 57.4014 36.871 57.3941C36.9538 57.3867 37.0191 57.3803 37.0669 57.3748V57.2151C37.0669 57.0314 37.0246 56.8983 36.94 56.8157C36.8554 56.7313 36.7267 56.689 36.5538 56.689C36.3073 56.689 36.0029 56.7579 35.6405 56.8956C35.6387 56.8901 35.6084 56.8065 35.5495 56.6449C35.4907 56.4833 35.4604 56.4007 35.4585 56.3971C35.8153 56.2446 36.2015 56.1685 36.6172 56.1685C37.0256 56.1685 37.3226 56.2575 37.5083 56.4356C37.6941 56.6119 37.787 56.8983 37.787 57.295V59.2698H37.2518C37.2499 59.2625 37.2297 59.201 37.191 59.0852C37.1524 58.9696 37.1331 58.9081 37.1331 58.9007C36.9823 59.0476 36.8343 59.1559 36.689 59.2257C36.5455 59.2937 36.3708 59.3277 36.1648 59.3277ZM36.3607 58.8153C36.528 58.8153 36.6733 58.7758 36.7965 58.6969C36.9216 58.6161 37.0108 58.5188 37.0642 58.405V57.821C37.0586 57.821 37.0099 57.8247 36.9179 57.8321C36.8278 57.8394 36.7791 57.8431 36.7717 57.8431C36.4793 57.8688 36.265 57.9239 36.1289 58.0083C35.9928 58.0928 35.9247 58.2287 35.9247 58.416C35.9247 58.5445 35.9624 58.6437 36.0379 58.7134C36.1133 58.7814 36.2208 58.8153 36.3607 58.8153Z" fill="#5C6097"/>
<path d="M43.0871 60.5274V56.2417H43.7079L43.7851 56.6659C43.8844 56.5061 44.0159 56.3831 44.1796 56.2968C44.3451 56.2087 44.5291 56.1646 44.7314 56.1646C44.9797 56.1646 45.1976 56.2334 45.3852 56.3712C45.5747 56.5088 45.7181 56.6971 45.8157 56.9358C45.9131 57.1727 45.9619 57.4407 45.9619 57.74C45.9619 58.2083 45.8478 58.5902 45.6198 58.8858C45.3935 59.1796 45.0864 59.3265 44.6983 59.3265C44.507 59.3265 44.3332 59.2889 44.1769 59.2136C44.0224 59.1365 43.8927 59.0327 43.7879 58.9024C43.8026 59.1668 43.8099 59.3155 43.8099 59.3486V60.4916L43.0871 60.5274ZM44.5438 58.7757C44.759 58.7757 44.9282 58.6857 45.0514 58.5058C45.1765 58.3258 45.239 58.0687 45.239 57.7345C45.239 57.3948 45.1765 57.1396 45.0514 56.9689C44.9264 56.7981 44.7525 56.7127 44.53 56.7127C44.0518 56.7127 43.8099 57.0377 43.8044 57.6877C43.8044 58.0623 43.8661 58.3377 43.9893 58.514C44.1143 58.6885 44.2992 58.7757 44.5438 58.7757Z" fill="#5C6097"/>
<path d="M51.0141 59.2697V56.2428H51.7369V59.2697H51.0141ZM51.0141 55.802V55.1851H51.7397V55.802H51.0141Z" fill="#5C6097"/>
<path d="M58.2356 59.3099C58.0296 59.3099 57.8577 59.2859 57.7197 59.2382C57.5836 59.1886 57.4769 59.1115 57.3997 59.0069C57.3224 58.9022 57.2672 58.7792 57.2341 58.6378C57.2029 58.4945 57.1872 58.3183 57.1872 58.1089V56.6795H56.6906L56.7182 56.2884L57.2369 56.2415L57.4686 55.4208L57.91 55.418V56.2415H58.6632V56.6795H57.91V58.1227C57.91 58.3523 57.9432 58.5156 58.0094 58.613C58.0756 58.7103 58.1979 58.759 58.3763 58.759C58.4811 58.759 58.5934 58.7498 58.7129 58.7314L58.7322 59.2492C58.7285 59.2492 58.7055 59.2539 58.6632 59.263C58.6228 59.2704 58.5832 59.2768 58.5446 59.2823C58.5078 59.2896 58.46 59.2961 58.4011 59.3016C58.3423 59.3071 58.2871 59.3099 58.2356 59.3099Z" fill="#5C6097"/>
<path d="M64.605 59.3277C64.3236 59.3277 64.0955 59.2505 63.9208 59.0963C63.7479 58.9402 63.6615 58.7162 63.6615 58.4242C63.6615 58.1103 63.7644 57.878 63.9705 57.7274C64.1765 57.575 64.4873 57.4786 64.903 57.4382C64.96 57.4308 65.0216 57.4235 65.0878 57.4161C65.154 57.4088 65.2285 57.4014 65.3113 57.3941C65.394 57.3867 65.4593 57.3803 65.5072 57.3748V57.2151C65.5072 57.0314 65.4649 56.8983 65.3803 56.8157C65.2956 56.7313 65.1669 56.689 64.994 56.689C64.7475 56.689 64.4431 56.7579 64.0808 56.8956C64.079 56.8901 64.0486 56.8065 63.9898 56.6449C63.9309 56.4833 63.9006 56.4007 63.8987 56.3971C64.2556 56.2446 64.6418 56.1685 65.0575 56.1685C65.4658 56.1685 65.7628 56.2575 65.9488 56.4356C66.1343 56.6119 66.227 56.8983 66.227 57.295V59.2698H65.692C65.6901 59.2625 65.67 59.201 65.6313 59.0852C65.5927 58.9696 65.5734 58.9081 65.5734 58.9007C65.4226 59.0476 65.2745 59.1559 65.1292 59.2257C64.9857 59.2937 64.811 59.3277 64.605 59.3277ZM64.8009 58.8153C64.9683 58.8153 65.1136 58.7758 65.2368 58.6969C65.3618 58.6161 65.4511 58.5188 65.5044 58.405V57.821C65.4989 57.821 65.4502 57.8247 65.3582 57.8321C65.268 57.8394 65.2193 57.8431 65.212 57.8431C64.9195 57.8688 64.7052 57.9239 64.5692 58.0083C64.4331 58.0928 64.365 58.2287 64.365 58.416C64.365 58.5445 64.4027 58.6437 64.4781 58.7134C64.5535 58.7814 64.6611 58.8153 64.8009 58.8153Z" fill="#5C6097"/>
<path d="M72.5887 59.3107C72.3811 59.3107 72.2078 59.2868 72.0702 59.2391C71.9342 59.1895 71.8263 59.1114 71.7476 59.0049C71.6682 58.8985 71.6128 58.7718 71.5819 58.6249C71.5504 58.4779 71.5347 58.2952 71.5347 58.0767V55.1269L72.258 55.0801V58.063C72.258 58.3347 72.2901 58.5193 72.3542 58.6166C72.4184 58.7121 72.5438 58.7598 72.7293 58.7598C72.8215 58.7598 72.9382 58.7497 73.0799 58.7295L73.0992 59.2446C73.0974 59.2446 73.0747 59.2492 73.0303 59.2583C72.9877 59.2675 72.9463 59.2749 72.9061 59.2804C72.8676 59.2877 72.818 59.2941 72.7573 59.2997C72.6967 59.307 72.6401 59.3107 72.5887 59.3107Z" fill="#5C6097"/>
<path d="M22.1908 42.0835H18.4291V43.2456H21.472V57.7418L17.3 52.237H13.5947C13.2732 52.237 13.0126 52.4971 13.0126 52.818C13.0126 53.1389 13.2732 53.3991 13.5947 53.3991H16.6876L20.8745 58.9304C21.419 59.6499 22.5674 59.2654 22.5674 58.3637V42.4595C22.5674 42.2519 22.3988 42.0835 22.1908 42.0835Z" fill="#EC1879"/>
<path d="M7.87683 59.3075H11.6651V58.1454H8.60263V43.6492L12.7675 49.1541H16.5342C16.8556 49.1541 17.1162 48.8939 17.1162 48.573C17.1162 48.2521 16.8556 47.992 16.5342 47.992H13.38L9.19316 42.4606C8.64859 41.7412 7.50015 42.1257 7.50015 43.0274V58.9315C7.50015 59.1392 7.6688 59.3075 7.87683 59.3075Z" fill="#EC1879"/>
</g>
</g>
<defs>
<linearGradient id="paint0_linear_1_8000" x1="84.3131" y1="14.7526" x2="14.5452" y2="84.5205" gradientUnits="userSpaceOnUse">
<stop/>
<stop offset="1" stop-color="#515151"/>
</linearGradient>
<clipPath id="clip0_1_8000">
<rect width="84" height="23.3333" fill="white" transform="translate(7.50015 37.834)"/>
</clipPath>
</defs>
</svg>
