<svg width="100" height="101" viewBox="0 0 100 101" fill="none" xmlns="http://www.w3.org/2000/svg">
<g clip-path="url(#clip0_1_8097)">
<path d="M49.4294 0.803223C62.6059 0.803224 74.9953 5.93492 84.3126 15.2522C93.6322 24.5696 98.7638 36.9589 98.7638 50.1354C98.7638 63.312 93.6321 75.7036 84.3149 85.0209C74.9975 94.3382 62.6082 99.4698 49.4294 99.4698C36.2506 99.4698 23.8635 94.3382 14.5462 85.0209C5.22886 75.7036 0.0971669 63.3142 0.097168 50.1377C0.0971692 36.961 5.22886 24.5718 14.5462 15.2545C23.8635 5.93493 36.2529 0.803223 49.4294 0.803223ZM49.4294 96.1178C61.7106 96.1178 73.2597 91.3346 81.9441 82.6502C90.6286 73.9657 95.4118 62.4189 95.4118 50.1354C95.4118 37.852 90.6286 26.3052 81.9441 17.6208C73.2597 8.93633 61.7129 4.15306 49.4294 4.15306C37.1459 4.15306 25.5991 8.93631 16.9147 17.6208C8.23026 26.3052 3.44699 37.852 3.44699 50.1354C3.44699 62.4189 8.23026 73.9636 16.9147 82.6502C25.6013 91.3346 37.1482 96.1178 49.4294 96.1178Z" fill="url(#paint0_linear_1_8097)"/>
<path d="M49.4282 96.2869C74.9164 96.2869 95.5787 75.6246 95.5787 50.1364C95.5787 24.6481 74.9164 3.98584 49.4282 3.98584C23.9399 3.98584 3.27765 24.6481 3.27765 50.1364C3.27765 75.6246 23.9399 96.2869 49.4282 96.2869Z" fill="white"/>
<g clip-path="url(#clip1_1_8097)">
<path d="M22.8272 58.6655C22.1204 59.6241 21.5084 60.503 20.8361 61.3303C20.6529 61.5565 20.2844 61.6275 20 61.7719C20.0646 61.4574 20.0453 61.0912 20.2155 60.8413C20.821 59.9128 21.879 59.0791 22.0126 58.1054C22.1355 57.2157 21.2369 56.2076 20.8727 55.2209C18.5562 48.9436 21.7347 41.8649 27.8545 39.883C31.8302 38.5905 35.5538 39.1958 38.8679 41.8498C39.0339 41.9834 39.2127 42.0997 39.4885 42.3L41.415 39.4198L39.6092 39.6202L39.551 39.3035L42.5398 38.5L42.9708 41.5159L42.6454 41.5999C42.4946 41.1023 42.3437 40.6047 42.1347 39.9089C41.4732 40.8976 40.8418 41.7442 40.3397 42.6684C40.2104 42.9118 40.4496 43.4482 40.6565 43.7627C43.5354 48.1573 43.5892 52.7371 41.0314 57.1597C37.4974 63.2712 28.9146 64.2901 23.6482 59.4389C23.4025 59.2213 23.1741 58.9973 22.8272 58.6655ZM38.4693 45.8652L38.118 45.8825C36.8704 47.7523 35.6033 49.6092 34.3837 51.4963C33.9915 52.1017 33.5993 52.2912 32.8904 52.0198C31.7591 51.589 30.576 51.2852 29.4426 50.8694C28.8306 50.654 28.4686 50.7854 28.1109 51.3261C27.4817 52.2804 26.7792 53.1852 26.1004 54.1051C24.5618 56.1946 24.564 56.3217 26.2232 58.3747C26.29 58.4587 26.3504 58.5492 26.4193 58.6289C30.0826 62.8899 36.7476 61.7611 38.5943 56.5458C39.4713 54.0706 39.5618 51.5028 39.1869 48.9264C39.0295 47.8945 38.7106 46.8863 38.4693 45.8652ZM24.4433 54.8138C24.6179 54.643 24.7826 54.4625 24.9368 54.2731C25.7987 53.0883 26.6951 51.925 27.4946 50.6971C28.0182 49.8914 28.5548 49.62 29.5029 49.997C30.6004 50.4236 31.7248 50.7777 32.8688 51.0569C33.1511 51.1279 33.6618 50.9879 33.8148 50.7704C35.0833 48.9522 36.3137 47.1082 37.5061 45.2384C37.5872 45.0966 37.6359 44.9387 37.6486 44.7759C37.6612 44.6131 37.6376 44.4495 37.5793 44.297C35.2995 40.232 29.6279 39.0105 26.2491 42.4551C23.6115 45.1393 22.7367 50.9793 24.4433 54.8138Z" fill="black"/>
<path d="M70.5635 51.7439H78.9093C79.073 52.541 79.0816 52.6056 78.3662 52.7025C77.2328 52.849 76.8751 53.5082 76.8837 54.5465C76.9009 56.7244 76.8837 58.9045 76.8837 61.2439C73.5738 62.125 70.1088 62.7648 66.4887 62.2198C61.8708 61.524 58.2528 58.2259 57.2465 53.6719C55.6756 46.563 60.1641 40.3158 67.3872 39.4218C70.279 39.0686 73.0954 39.4606 75.914 39.9604C76.2071 40.0121 76.6402 40.3632 76.6747 40.6196C76.8708 42.0715 76.9828 43.5385 77.0776 45.0012C77.0906 45.2059 76.847 45.4321 76.7221 45.6475C76.5281 45.4946 76.22 45.3782 76.1553 45.1822C75.5089 43.2434 74.5327 41.5696 72.4102 40.9556C69.861 40.2189 67.3312 40.1694 64.8898 41.3865C61.888 42.8794 60.8192 45.585 60.5154 48.6634C60.1491 52.3255 60.6124 55.8735 63.3167 58.6611C65.8056 61.2461 68.9344 61.7545 72.3262 60.8928C73.4036 60.6171 74.0371 59.8782 74.05 58.7171C74.063 57.4245 74.0996 56.132 74.05 54.8524C73.9832 53.3854 73.4898 52.9266 72.0051 52.7499C71.6833 52.7451 71.3639 52.6936 71.057 52.597C70.7984 52.4785 70.613 52.2049 70.3933 51.9981C70.4407 51.9119 70.501 51.8279 70.5635 51.7439Z" fill="black"/>
<path d="M54.5036 40.051C54.2601 40.2664 54.0446 40.6261 53.7688 40.68C51.504 41.1345 51.3079 41.3263 51.3036 43.6269C51.295 48.5673 51.295 53.5068 51.3036 58.4457C51.3036 60.2035 51.7647 60.6904 53.5231 60.9683C53.8312 61.0178 54.0984 61.313 54.385 61.4961C54.0769 61.6426 53.7687 61.9118 53.4584 61.9269C51.0263 61.9614 48.5935 61.9614 46.1599 61.9269C45.8884 61.9269 45.6234 61.6619 45.354 61.5198C45.5997 61.3367 45.8238 61.0329 46.091 60.9877C48.0756 60.6473 48.4075 60.3802 48.4225 58.3552C48.4613 53.2735 48.4463 48.1917 48.4075 43.1099C48.3924 41.3866 47.9571 41.0096 46.2892 40.7123C45.9531 40.6541 45.6643 40.3439 45.354 40.1479C45.7031 40.0122 46.0479 39.7623 46.3991 39.7558C48.832 39.7192 51.2648 39.73 53.6998 39.7321C53.9065 39.7438 54.1124 39.7682 54.3161 39.8054L54.5036 40.051Z" fill="black"/>
<path d="M38.4691 45.8652C38.7105 46.8863 39.0294 47.8945 39.1802 48.9264C39.5552 51.5114 39.4647 54.0706 38.5877 56.5458C36.7409 61.7611 30.0803 62.8899 26.4127 58.6289C26.3438 58.5492 26.2834 58.4587 26.2166 58.3747C24.5574 56.3217 24.5552 56.1946 26.0938 54.1051C26.7726 53.1852 27.4751 52.2805 28.1043 51.3261C28.462 50.7854 28.824 50.6476 29.436 50.8695C30.5759 51.2852 31.7589 51.5868 32.8837 52.0198C33.5927 52.2912 33.9849 52.1017 34.3771 51.4963C35.5967 49.6092 36.8638 47.7523 38.1114 45.8825L38.4691 45.8652Z" fill="white"/>
<path d="M24.4432 54.8134C22.7366 50.9811 23.6114 45.141 26.249 42.4547C29.6278 39.008 35.2994 40.2316 37.5792 44.2966C37.6375 44.4491 37.6611 44.6127 37.6484 44.7755C37.6358 44.9383 37.5871 45.0963 37.5059 45.238C36.3093 47.1049 35.0789 48.9489 33.8147 50.77C33.6617 50.9854 33.151 51.1276 32.8687 51.0565C31.7247 50.7773 30.6003 50.4232 29.5028 49.9966C28.5547 49.611 28.0181 49.8911 27.4945 50.6967C26.695 51.9246 25.7986 53.0879 24.9367 54.2727C24.7825 54.4621 24.6178 54.6426 24.4432 54.8134Z" fill="white"/>
</g>
</g>
<defs>
<linearGradient id="paint0_linear_1_8097" x1="84.3144" y1="15.2525" x2="14.5465" y2="85.0205" gradientUnits="userSpaceOnUse">
<stop/>
<stop offset="1" stop-color="#515151"/>
</linearGradient>
<clipPath id="clip0_1_8097">
<rect width="100" height="100" fill="white" transform="translate(0 0.5)"/>
</clipPath>
<clipPath id="clip1_1_8097">
<rect width="59" height="24" fill="white" transform="translate(20 38.5)"/>
</clipPath>
</defs>
</svg>
