<svg width="20" height="20" viewBox="0 0 20 20" fill="none" xmlns="http://www.w3.org/2000/svg">
<path fill-rule="evenodd" clip-rule="evenodd" d="M13.4503 5.19887L5.41963 13.2175C4.92259 13.7146 4.92259 14.5205 5.41963 15.0177V15.0177C5.91678 15.5147 6.7227 15.5147 7.21985 15.0177L15.2384 6.98524C15.7316 6.49156 15.7316 5.69169 15.2384 5.198L15.2384 5.198C14.7444 4.7045 13.9439 4.70488 13.4503 5.19887V5.19887Z" fill="#377DFF"/>
<path opacity="0.3" fill-rule="evenodd" clip-rule="evenodd" d="M8.6235 6.16967C8.6235 7.09588 8.06541 7.93083 7.20958 8.28499C6.35376 8.63915 5.36885 8.44274 4.71436 7.78738C4.05986 7.13201 3.86475 6.14685 4.22004 5.2915C4.57533 4.43614 5.41102 3.87915 6.33723 3.88037C6.94401 3.88072 7.52579 4.12212 7.95456 4.55146C8.38333 4.98079 8.62396 5.56289 8.6235 6.16967ZM16.5517 14.0979C16.5521 15.0233 15.9946 15.8584 15.1391 16.2131C14.2836 16.5677 13.2987 16.372 12.6438 15.7173C11.9888 15.0625 11.7929 14.0776 12.1474 13.2221C12.5019 12.3665 13.3369 11.8088 14.263 11.809C14.8701 11.8087 15.4524 12.0498 15.8817 12.4791C16.311 12.9084 16.552 13.4907 16.5517 14.0979Z" fill="#377DFF"/>
</svg>
