<svg width="118" height="32" viewBox="0 0 118 32" fill="none" xmlns="http://www.w3.org/2000/svg">
<path d="M26.5684 10.2076H18.5562C18.5562 8.89269 18.4015 8.01049 18.0937 7.561C17.6168 6.89669 16.3011 6.56377 14.1474 6.56377C12.0555 6.56377 10.6689 6.75499 9.99241 7.13819C9.31591 7.52291 8.97689 8.35864 8.97689 9.64538C8.97689 10.8102 9.27705 11.5781 9.87814 11.9453C10.3086 12.2067 10.8777 12.3598 11.5862 12.4055L13.202 12.5198C16.6653 12.7491 18.8281 12.9114 19.6905 13.0035C22.4293 13.2793 24.4147 14.0076 25.6465 15.1877C26.6156 16.1088 27.1938 17.3125 27.3782 18.798C27.4864 19.6871 27.5397 20.6935 27.5397 21.8111C27.5397 24.3876 27.2936 26.2739 26.8022 27.4692C25.9101 29.6633 23.9058 31.0491 20.7876 31.6311C19.481 31.8772 17.4827 31.9998 14.7942 31.9998C10.3071 31.9998 7.18049 31.7332 5.41456 31.1961C3.24791 30.5386 1.81872 29.2062 1.12773 27.2003C0.742246 26.0834 0.551788 24.223 0.551788 21.6191H8.56398C8.56398 21.9094 8.56474 22.1318 8.56474 22.2849C8.56474 23.6745 8.96394 24.5674 9.76158 24.9658C10.3139 25.2401 10.9805 25.3841 11.7644 25.4016H14.7104C16.2135 25.4016 17.1727 25.3246 17.5864 25.17C18.3231 24.8805 18.8068 24.4143 19.0376 23.769C19.1603 23.3713 19.2213 22.8578 19.2213 22.2286C19.2213 20.8199 18.707 19.9629 17.6801 19.6551C17.2953 19.534 15.5096 19.3641 12.3206 19.15C9.75929 18.9672 7.98042 18.7912 6.9847 18.6205C4.36171 18.1299 2.61331 17.1205 1.74101 15.5884C0.973843 14.2872 0.590642 12.3179 0.590642 9.68271C0.590642 7.6768 0.79786 6.06781 1.2123 4.85802C1.62673 3.64747 2.29486 2.7287 3.21668 2.10019C4.56741 1.13495 6.296 0.568907 8.39942 0.399781C10.1501 0.246652 12.092 0.168945 14.2282 0.168945C17.5909 0.168945 19.9877 0.362451 21.4161 0.745652C24.903 1.68271 26.6461 4.30646 26.6461 8.61843C26.6461 8.97192 26.6202 9.50063 26.5684 10.2076Z" fill="#939191"/>
<path d="M61.8022 32V0H74.3549H76.325H77.8479C80.0489 0 81.7279 0.179031 82.8821 0.538615C85.5211 1.3652 87.2916 3.05876 88.1989 5.61699C88.6667 6.9601 88.9013 8.982 88.9013 11.6819C88.9013 14.9281 88.6416 17.2601 88.1273 18.6809C87.0981 21.489 84.9802 23.1071 81.7813 23.5261C81.4049 23.5894 79.8043 23.645 76.9787 23.6907L75.5495 23.7379H70.4147V32H61.8022ZM70.4147 16.3146H75.7833C77.486 16.2537 78.5214 16.1227 78.8939 15.9177C79.4028 15.6381 79.7449 15.0774 79.9148 14.2371C80.0237 13.6779 80.0778 12.846 80.0778 11.7414C80.0778 10.3876 79.9696 9.38425 79.7525 8.72907C79.4432 7.81107 78.7012 7.25264 77.5264 7.04923C77.2933 7.01876 76.7372 7.002 75.8557 7.002H70.4147V16.3146Z" fill="#939191"/>
<path d="M107.285 26.4699H95.7698L94.2225 32H85.3121L94.9272 0H107.919L117.651 32H108.928L107.285 26.4699ZM105.575 20.2358L101.539 6.36435L97.6233 20.2358H105.575Z" fill="#939191"/>
<path d="M49.915 4.50168C53.4666 4.50168 56.6374 6.1381 58.721 8.7009L60.5776 4.72033C57.6742 1.97621 53.7226 0.28418 49.3642 0.28418C42.5778 0.28418 36.7726 4.38284 34.3904 10.185H30.7701L28.6324 14.7674H33.2895C33.2545 15.1925 33.2316 15.6176 33.2316 16.0518C33.2316 16.5767 33.259 17.0963 33.3108 17.609H30.9705L28.8336 22.1929H34.5016C36.9516 27.848 42.6844 31.8179 49.3642 31.8179C52.7307 31.8179 55.8542 30.8093 58.4406 29.086V23.4683C56.3578 25.8398 53.3112 27.3384 49.915 27.3384C45.9451 27.3384 42.4528 25.2913 40.4195 22.1929H52.2873L54.425 17.609H38.6734C38.5919 17.0574 38.5484 16.4937 38.5484 15.9193C38.5484 15.5307 38.5682 15.1468 38.6063 14.7674H55.7499L57.8868 10.185H40.0881C42.0567 6.78794 45.7196 4.50168 49.915 4.50168Z" fill="#939191"/>
<path d="M49.9149 4.63922C53.2997 4.63922 56.4705 6.15222 58.6143 8.78816L58.7529 8.95881L58.8466 8.75998L60.7025 4.7794L60.7436 4.68874L60.6728 4.62018C57.6209 1.73588 53.6045 0.147461 49.3641 0.147461C46.0524 0.147461 42.8664 1.11499 40.149 2.94567C37.4955 4.73293 35.4599 7.21879 34.2638 10.1328L34.3903 10.0475H30.7701H30.6817L30.6451 10.1267L28.5082 14.7099L28.4168 14.9057H28.6324H33.2895L33.1523 14.7564C33.1135 15.2325 33.0944 15.6553 33.0944 16.0522C33.0944 16.5665 33.1211 17.0959 33.1737 17.6231L33.3108 17.4723H30.9704H30.8836L30.847 17.5515L28.7086 22.1347L28.6179 22.3305H28.8335H34.5015L34.3751 22.2475C36.9303 28.1448 42.8139 31.9555 49.3641 31.9555C52.6476 31.9555 55.8115 31.004 58.5168 29.2015L58.577 29.1611V29.0864V23.4687V23.1038L58.337 23.378C56.2031 25.8075 53.1337 27.2001 49.9149 27.2001C46.1286 27.2001 42.6219 25.2994 40.5337 22.1172L40.4194 22.3305H52.2873H52.3756L52.4122 22.252L54.5499 17.6673L54.6413 17.4723H54.425H38.6733L38.8097 17.5896C38.7282 17.0342 38.6863 16.4735 38.6863 15.9197C38.6863 15.5426 38.7053 15.1601 38.7434 14.7815L38.6063 14.9057H55.7498H55.8382L55.8747 14.8264L58.0117 10.2433L58.1039 10.0475H57.8867H40.088L40.2069 10.2539C42.2136 6.79064 45.9343 4.63922 49.9149 4.63922ZM40.088 10.3225H57.8867L57.7618 10.1267L55.6256 14.7099L55.7498 14.6307H38.6063H38.4821L38.4684 14.7548C38.4303 15.1418 38.4113 15.5342 38.4113 15.9197C38.4113 16.4865 38.4539 17.0624 38.537 17.63L38.5552 17.7473H38.6733H54.425L54.3008 17.5515L52.1639 22.1347L52.2873 22.0555H40.4194H40.1642L40.3044 22.2673C42.4429 25.5294 46.0364 27.4744 49.9149 27.4744C53.2121 27.4744 56.3577 26.0482 58.5442 23.5593L58.3027 23.4687V29.0864L58.3636 28.9729C55.7041 30.7442 52.5928 31.6805 49.3641 31.6805C42.9228 31.6805 37.139 27.9345 34.628 22.1378L34.5914 22.0555H34.5015H28.8335L28.9592 22.252L31.0954 17.6673L30.9704 17.7473H33.3108H33.4624L33.4479 17.5957C33.3961 17.0777 33.3687 16.5573 33.3687 16.0522C33.3687 15.6637 33.3877 15.247 33.4266 14.7792L33.4388 14.6307H33.2895H28.6324L28.7566 14.8264L30.8943 10.2433L30.7701 10.3225H34.3903H34.4825L34.5168 10.2372C35.6938 7.37344 37.6944 4.93101 40.3029 3.17346C42.9739 1.37477 46.108 0.423244 49.3641 0.423244C53.5344 0.423244 57.4822 1.98424 60.4831 4.82054L60.4526 4.66208L58.5975 8.64342L58.8284 8.61446C56.6305 5.91377 53.3828 4.3642 49.9149 4.3642C45.8353 4.3642 42.0254 6.56818 39.9684 10.116L39.8488 10.3225H40.088Z" fill="#939191"/>
</svg>
