<svg width="49" height="48" viewBox="0 0 49 48" fill="none" xmlns="http://www.w3.org/2000/svg">
<path d="M8.34887 18.2317C6.71459 18.2667 5.29566 19.4699 5.3054 21.3911C5.31104 22.5066 6.17259 23.3884 7.01554 24.3187C8.31675 25.7544 8.69862 25.5011 8.63873 26.9563C8.61672 27.4889 7.7331 28.3209 6.78366 28.3186C5.377 28.3161 4.39379 26.9657 4.78366 25.3331H4.37787L3.3054 29.2172H3.7112C3.82979 28.8184 4.63141 28.8542 4.95758 28.8404C5.57195 28.8144 5.92257 29.3089 7.18946 29.3042C8.92284 29.2977 10.6263 28.164 10.6097 26.0578C10.6013 24.9649 9.93058 24.2223 9.04453 23.3621C7.6815 22.0394 7.15018 21.407 7.39235 20.3476C7.5927 19.4711 8.21893 19.2254 8.84163 19.2172C10.0081 19.2023 10.5101 20.4321 10.6677 21.71H11.0445L12.001 18.4636H11.5952C11.5063 18.8471 11.0373 18.8664 10.6677 18.8404C10.5012 18.8285 10.4073 18.862 10.001 18.7245C9.56799 18.5776 8.88517 18.2204 8.34887 18.2317ZM12.4358 18.6665L12.3199 19.3042C12.9602 19.307 13.1913 19.2926 13.1894 20.4926V29.2172C13.1894 29.2172 13.3583 29.6001 13.5952 29.2172C13.8323 28.834 17.6822 22.4636 17.6822 22.4636V22.6665L17.6532 29.2172C17.6532 29.2172 17.8983 29.6001 18.146 29.2172C18.3936 28.834 23.7112 20.0578 23.7112 20.0578C23.9536 19.6223 24.1379 19.3191 24.7546 19.3042L24.8996 18.6665H21.6242L21.5083 19.3042C22.2253 19.3056 22.7028 19.1926 22.7257 19.623C22.7353 19.8035 22.7026 19.9484 22.5807 20.1737L19.8851 24.5795L19.8271 24.4926V20.4926C19.8297 20.3127 19.8307 20.1354 19.8271 19.9998C19.8093 19.3206 19.9959 19.3056 20.5228 19.3042L20.6387 18.6665H16.9865L16.8706 19.3042C17.4206 19.3191 17.661 19.4786 17.6532 19.9708V20.8694L15.3054 24.6665L15.2184 24.7244V20.4636C15.2186 20.3137 15.2198 20.0784 15.2184 19.9129C15.2162 19.6807 15.1655 19.3056 15.8271 19.3042L16.001 18.6665H12.4358ZM25.3923 18.6665L25.2764 19.3042C25.5757 19.2886 25.8813 19.4018 25.9141 19.739C25.9282 19.8858 25.8414 20.1013 25.7691 20.3766L23.7691 27.8259C23.6511 28.3207 23.0559 28.5857 22.2619 28.5795L22.146 29.2172H26.4068L26.5517 28.5795C25.7991 28.5643 25.8465 28.3559 25.8561 28.0868C25.862 27.9184 25.9434 27.7638 26.001 27.565L28.03 20.0868C28.2387 19.3873 28.7418 19.3197 29.5083 19.3042L29.6532 18.6665H25.3923ZM30.2329 18.6665L30.088 19.3042C30.7228 19.3522 31.6239 19.3452 31.3923 20.0868C31.3418 20.2489 31.3973 20.1745 31.3343 20.4346L29.3923 27.681C29.2412 28.3536 28.7707 28.5642 28.2039 28.5795L28.03 29.2172H32.5517L32.7256 28.5795C31.7367 28.577 31.3367 28.4446 31.5372 27.681C31.5799 27.5183 31.6609 27.2302 31.7112 26.9853L32.6387 23.7969H32.8416C33.7255 23.7935 33.975 23.9036 34.001 24.3766C34.0174 24.6805 34.0091 24.927 34.03 25.1013H34.5227L35.2764 21.9998L34.8706 21.9418C34.4526 23.0102 33.5611 23.0253 33.2474 23.0143H32.8416L33.4793 20.4636C33.7566 19.5212 33.8466 19.5735 34.5517 19.565C35.7802 19.5503 36.5093 19.7517 36.4068 21.4781H36.8126L37.5662 18.6665H30.2329ZM38.1459 18.6665L37.3633 21.4781H37.8271C38.0536 20.6927 38.0596 20.5607 38.5227 20.1447C38.9983 19.729 39.5093 19.565 40.3198 19.565L38.2039 27.3042C38.0573 28.5682 37.33 28.564 36.4068 28.5795L36.2619 29.2172H41.0445L41.1604 28.6375C40.5484 28.6942 40.1717 28.2919 40.2908 27.8259C40.3366 27.6466 40.4209 27.3804 40.4937 27.0723L42.4648 19.565C43.966 19.5641 44.267 20.1669 44.1749 21.4781H44.6097L45.3633 18.6665H38.1459ZM20.03 28.0288C19.7788 28.0279 19.5147 28.3415 19.4503 28.7244C19.3857 29.1074 19.5469 29.4192 19.7981 29.4201C20.049 29.4212 20.3133 29.1074 20.3778 28.7244C20.4424 28.3418 20.2809 28.0299 20.03 28.0288ZM27.4503 28.0288C27.1992 28.0279 26.935 28.3415 26.8706 28.7244C26.8059 29.1074 26.9674 29.4192 27.2184 29.4201C27.4695 29.4212 27.7337 29.1074 27.7981 28.7244C27.8628 28.3418 27.7013 28.0299 27.4503 28.0288ZM33.8271 28.0288C33.576 28.0279 33.3118 28.3415 33.2474 28.7244C33.1827 29.1074 33.3151 29.4192 33.5662 29.4201C33.8173 29.4212 34.0815 29.1074 34.1459 28.7244C34.2106 28.3418 34.0781 28.0299 33.8271 28.0288ZM10.9866 28.0578C10.7357 28.0566 10.5002 28.3705 10.4358 28.7534C10.3713 29.1364 10.5038 29.448 10.7547 29.4491C11.0057 29.4502 11.27 29.1364 11.3344 28.7534C11.3989 28.3705 11.2376 28.0589 10.9866 28.0578ZM42.3488 28.0578C42.0978 28.0569 41.8335 28.3705 41.7691 28.7534C41.7044 29.1364 41.8659 29.4482 42.1169 29.4491C42.368 29.4502 42.6322 29.1364 42.6966 28.7534C42.7613 28.3708 42.5999 28.0589 42.3488 28.0578Z" fill="#939191"/>
<path fill-rule="evenodd" clip-rule="evenodd" d="M9.66249 18.5179C9.79622 18.5721 9.91809 18.6211 10.024 18.657C10.2239 18.7246 10.3436 18.7491 10.4318 18.7587C10.4761 18.7635 10.5136 18.7647 10.5515 18.7653C10.5573 18.7654 10.5633 18.7655 10.5693 18.7656C10.6014 18.7661 10.6354 18.7666 10.6725 18.7693M9.66249 18.5179L9.64439 18.5106L9.66249 18.5179ZM9.64439 18.5106C9.51647 18.4588 9.37886 18.4031 9.23815 18.3519L9.64439 18.5106ZM9.23815 18.3519C8.94499 18.2451 8.6295 18.1545 8.3471 18.1604L9.23815 18.3519ZM9.18869 18.4877C8.89811 18.382 8.60404 18.2997 8.35014 18.305C6.75199 18.3392 5.36792 19.5133 5.37744 21.3918C5.38017 21.93 5.58914 22.4154 5.90615 22.8849C6.18884 23.3037 6.55364 23.7046 6.92867 24.1168C6.97529 24.1681 7.02206 24.2195 7.06886 24.2711C7.39213 24.6278 7.65824 24.8795 7.87529 25.0797C7.906 25.108 7.93583 25.1354 7.9648 25.162C8.13913 25.3219 8.2819 25.453 8.39263 25.5846C8.5243 25.7412 8.61287 25.9009 8.66349 26.1166C8.71347 26.3297 8.72577 26.5945 8.71071 26.9603C8.70447 27.1113 8.63805 27.276 8.53321 27.435C8.42775 27.595 8.28017 27.7543 8.10394 27.8955C7.75221 28.1773 7.27842 28.3931 6.78324 28.3919C5.34628 28.3893 4.35082 27.035 4.69309 25.4064H4.43265L3.40012 29.1459H3.66097C3.70474 29.0497 3.78306 28.9799 3.87521 28.9296C3.98225 28.8711 4.11275 28.8361 4.24442 28.8141C4.44616 28.7806 4.6655 28.776 4.82716 28.7726C4.8753 28.7716 4.91833 28.7707 4.95425 28.7692C5.22973 28.7575 5.45775 28.8455 5.71166 28.9435C5.758 28.9613 5.80521 28.9796 5.85372 28.9976C6.17103 29.1153 6.56659 29.2352 7.18893 29.2329C8.04072 29.2297 8.88274 28.9494 9.50858 28.4144C10.133 27.8806 10.5453 27.0909 10.5372 26.0593C10.529 25 9.88163 24.2768 8.99392 23.415C8.31377 22.755 7.83287 22.2597 7.55421 21.7942C7.27186 21.3227 7.19631 20.8807 7.32162 20.3325C7.42541 19.8784 7.64167 19.581 7.91841 19.3976C8.19332 19.2153 8.52075 19.1501 8.84042 19.1459C9.45498 19.1381 9.89322 19.4604 10.194 19.9415C10.4832 20.4039 10.6487 21.0166 10.7311 21.6387H10.9902L11.9041 18.5369H11.6494C11.5841 18.7262 11.4301 18.8268 11.2562 18.8761C11.0688 18.9292 10.8486 18.9266 10.6624 18.9135L10.6623 18.9135C10.6295 18.9112 10.6 18.9107 10.5679 18.9102C10.5617 18.9101 10.5554 18.91 10.5489 18.9099C10.5096 18.9092 10.467 18.9079 10.4162 18.9024C10.3144 18.8914 10.184 18.8638 9.97762 18.7939C9.86701 18.7564 9.74109 18.7057 9.60824 18.652L9.59078 18.6449C9.46235 18.5929 9.32691 18.538 9.18869 18.4877ZM8.3471 18.1604C6.67672 18.1962 5.2229 19.4286 5.23286 21.3925L8.3471 18.1604ZM11.5376 18.3923L11.5246 18.4483L11.5376 18.3923ZM11.5246 18.4483C11.488 18.6059 11.3755 18.6919 11.2167 18.737L11.5246 18.4483ZM11.2167 18.737C11.0549 18.7829 10.8559 18.7822 10.6725 18.7693L11.2167 18.737ZM12.3752 18.5952H16.0954L15.8821 19.3774L15.827 19.3775C15.5084 19.3781 15.3878 19.4681 15.3364 19.5587C15.3088 19.6074 15.2962 19.6644 15.2914 19.7266C15.2877 19.7741 15.2887 19.82 15.2896 19.8661C15.29 19.8817 15.2903 19.8974 15.2905 19.9132V19.9133C15.2915 20.0356 15.2911 20.1961 15.2908 20.3318C15.2906 20.3802 15.2905 20.4254 15.2905 20.4647V24.5537L17.5807 20.8498V19.9713L17.5807 19.9707C17.5844 19.7355 17.5287 19.5992 17.4254 19.5158C17.3171 19.4283 17.1405 19.3848 16.8684 19.3774L16.7841 19.3752L16.926 18.5952H20.7251L20.5829 19.3773L20.5227 19.3775C20.39 19.3778 20.2844 19.3791 20.1987 19.3906C20.1133 19.402 20.0562 19.4226 20.0158 19.4551C19.9767 19.4867 19.945 19.5362 19.9243 19.6226C19.9032 19.7104 19.8948 19.8314 19.8991 19.9989C19.9027 20.1359 19.9017 20.3142 19.8992 20.4941V24.4186L22.5178 20.1387C22.634 19.9234 22.6619 19.7919 22.6532 19.6279C22.6483 19.5347 22.6199 19.482 22.5797 19.4481C22.5365 19.4116 22.4691 19.3877 22.3683 19.3755C22.2683 19.3633 22.1455 19.3637 21.9993 19.3673C21.9628 19.3682 21.9249 19.3694 21.8857 19.3705C21.7698 19.374 21.6428 19.3777 21.5079 19.3775L21.4214 19.3773L21.5636 18.5952H24.9899L24.8124 19.3761L24.7561 19.3774C24.4608 19.3846 24.2777 19.46 24.1394 19.5791C23.9973 19.7014 23.8964 19.8743 23.7741 20.094L23.7534 20.1311H23.7516L23.5438 20.4741C23.3979 20.7148 23.1892 21.0592 22.938 21.4735C22.4356 22.3023 21.7632 23.4113 21.083 24.5323C19.7232 26.7733 18.331 29.0647 18.2064 29.2574C18.1391 29.3616 18.0652 29.4241 17.9857 29.4488C17.9049 29.4739 17.8311 29.456 17.7732 29.426C17.7163 29.3964 17.6711 29.3536 17.6413 29.3203C17.6261 29.3034 17.6141 29.2881 17.6058 29.2769C17.6017 29.2713 17.5984 29.2666 17.5961 29.2632C17.5953 29.2621 17.5946 29.261 17.594 29.2602L17.5934 29.2592L17.5925 29.2579L17.5921 29.2573L17.5921 29.2572C17.5921 29.2572 17.5921 29.2572 17.653 29.2182L17.5921 29.2572L17.5806 29.2392L17.6094 22.7244L17.5779 22.7765C17.4722 22.9514 17.3209 23.2017 17.1386 23.5034C16.7739 24.1066 16.2853 24.9148 15.7892 25.7351C14.7973 27.3753 13.7753 29.0642 13.6565 29.2562C13.5936 29.3579 13.5277 29.4216 13.4564 29.4477C13.3805 29.4754 13.3132 29.4553 13.2632 29.422C13.2155 29.3902 13.1806 29.345 13.1587 29.3116C13.1475 29.2943 13.1388 29.2787 13.1328 29.2674C13.1299 29.2617 13.1275 29.257 13.1259 29.2536C13.1251 29.2519 13.1244 29.2505 13.124 29.2494L13.1234 29.2481L13.1232 29.2477L13.1231 29.2475L13.1231 29.2474C13.1231 29.2474 13.123 29.2474 13.1892 29.2182L13.123 29.2474L13.1169 29.2334V20.4935C13.1174 20.1949 13.1033 19.9762 13.0731 19.8154C13.0429 19.6543 12.9979 19.559 12.9425 19.4999C12.8885 19.4423 12.817 19.411 12.7145 19.3947C12.6142 19.3787 12.4928 19.3782 12.34 19.3776L12.2331 19.3771L12.3752 18.5952ZM13.2615 29.2014C13.2657 29.2094 13.2719 29.2204 13.2798 29.2325C13.2971 29.2589 13.3192 29.2856 13.3433 29.3016C13.3652 29.3162 13.3845 29.32 13.4068 29.3118C13.4339 29.302 13.478 29.27 13.5335 29.1802C13.6518 28.989 14.6732 27.3011 15.6655 25.6603C16.1616 24.84 16.6502 24.0318 17.0148 23.4286C17.1971 23.1269 17.3484 22.8766 17.4542 22.7017L17.62 22.4273C17.62 22.4273 17.6201 22.4272 17.6819 22.4646L17.6201 22.4272L17.7542 22.2052V22.6675L17.7542 22.6678L17.7254 29.1953C17.7313 29.203 17.7392 29.2129 17.7489 29.2238C17.7728 29.2504 17.8044 29.2793 17.8398 29.2976C17.8741 29.3154 17.908 29.3215 17.9428 29.3107C17.9789 29.2995 18.0285 29.2662 18.085 29.1789C18.2082 28.9883 19.5985 26.7001 20.9594 24.4573C21.6395 23.3363 22.312 22.2273 22.8144 21.3986C23.0655 20.9842 23.2742 20.6399 23.4201 20.3992L23.6484 20.0225C23.7683 19.8071 23.8806 19.6111 24.0451 19.4695C24.2037 19.333 24.4054 19.2509 24.6962 19.2351L24.8088 18.7398H21.6843L21.5947 19.2325C21.6949 19.2315 21.7898 19.2287 21.8796 19.2261C21.9193 19.2249 21.958 19.2237 21.9957 19.2228C22.1414 19.2191 22.2739 19.2184 22.3857 19.232C22.4969 19.2455 22.5979 19.2741 22.673 19.3376C22.7512 19.4036 22.7911 19.4981 22.7976 19.6202C22.8081 19.8167 22.7709 19.9747 22.6441 20.2091L22.6432 20.2108L19.8874 24.7148L19.7546 24.5155V20.4931L19.7546 20.4926C19.7571 20.3128 19.7581 20.1367 19.7546 20.0027C19.7501 19.8307 19.7583 19.695 19.7837 19.5889C19.8094 19.4815 19.854 19.3998 19.9251 19.3425C19.995 19.2862 20.0822 19.2603 20.1795 19.2473C20.2612 19.2364 20.356 19.2339 20.4621 19.2331L20.5518 18.7398H17.0466L16.9563 19.2364C17.1945 19.2503 17.3839 19.2965 17.5162 19.4033C17.6685 19.5263 17.7292 19.7156 17.7253 19.9724V20.8909L15.3583 24.7189L15.1459 24.8605V20.4645C15.1459 20.4248 15.146 20.3792 15.1462 20.3306C15.1465 20.1951 15.1469 20.036 15.1459 19.9145L15.2181 19.9139L15.1459 19.9146L15.1459 19.9145C15.1458 19.9021 15.1455 19.8886 15.1452 19.8744C15.1441 19.8269 15.1429 19.7708 15.1472 19.7154C15.1529 19.642 15.1686 19.5616 15.2107 19.4873C15.2939 19.3405 15.4635 19.2446 15.7714 19.2339L15.7571 19.2862L15.8269 19.3052L15.8267 19.2329C15.8078 19.2329 15.7894 19.2333 15.7714 19.2339L15.9061 18.7398H12.4959L12.4062 19.2333C12.5293 19.234 12.6408 19.2365 12.7373 19.2519C12.8582 19.2712 12.9644 19.3118 13.048 19.401C13.1302 19.4887 13.1826 19.6149 13.2152 19.7887C13.2479 19.9628 13.262 20.1922 13.2615 20.4937V29.2014ZM25.3317 18.5952H29.7435L29.566 19.3763L29.5095 19.3775C29.1246 19.3853 28.8211 19.4065 28.5882 19.5064C28.363 19.6031 28.1984 19.7761 28.0993 20.1076C28.0992 20.1079 28.0991 20.1082 28.099 20.1085L26.0704 27.5856L26.0702 27.5862C26.0507 27.6535 26.0277 27.7182 26.0067 27.7774C25.9963 27.8068 25.9863 27.8349 25.9775 27.8613C25.9498 27.9439 25.9307 28.0167 25.9281 28.0903C25.9276 28.1049 25.927 28.1189 25.9264 28.1322C25.9242 28.1845 25.9223 28.228 25.9266 28.2687C25.9315 28.3166 25.9444 28.3516 25.9709 28.3803C25.9986 28.4102 26.0482 28.441 26.1418 28.4649C26.2355 28.4888 26.3674 28.5045 26.553 28.5082L26.6417 28.51L26.4643 29.2905H22.0591L22.2014 28.5078L22.2622 28.5082C22.652 28.5113 22.9874 28.4476 23.2372 28.3265C23.4861 28.2059 23.6459 28.031 23.6986 27.8101L23.6988 27.8091L25.699 20.3593L25.699 20.3591C25.7174 20.2892 25.7366 20.2233 25.7547 20.162C25.7573 20.1532 25.7599 20.1445 25.7624 20.1359C25.7777 20.0843 25.7918 20.0365 25.804 19.9917C25.833 19.8849 25.8475 19.8058 25.8418 19.7469C25.8278 19.6026 25.7574 19.5101 25.6586 19.4528C25.5566 19.3936 25.4207 19.3701 25.2799 19.3774L25.1887 19.3821L25.3317 18.5952ZM25.4524 18.7398L25.3629 19.232C25.4927 19.2362 25.6227 19.2647 25.7312 19.3278C25.8683 19.4074 25.967 19.5401 25.9858 19.733L25.9858 19.733C25.9942 19.821 25.9724 19.9231 25.9435 20.0296C25.9309 20.0762 25.9162 20.1258 25.9009 20.1773C25.8984 20.1858 25.8959 20.1944 25.8933 20.203C25.8753 20.2641 25.8566 20.3283 25.8388 20.396L25.8387 20.3964L23.8392 27.8437C23.8391 27.844 23.839 27.8444 23.839 27.8447C23.7734 28.1181 23.5766 28.3227 23.3003 28.4566C23.0384 28.5835 22.7014 28.6492 22.322 28.6528L22.2323 29.1459H26.3489L26.4616 28.65C26.3138 28.6435 26.1974 28.6283 26.106 28.605C25.9972 28.5772 25.9182 28.5362 25.8648 28.4784C25.8103 28.4195 25.7897 28.351 25.7827 28.2836C25.7773 28.2313 25.7798 28.1743 25.7821 28.121C25.7827 28.1088 25.7832 28.0969 25.7836 28.0852C25.7869 27.9905 25.8114 27.9018 25.8404 27.8154C25.8509 27.784 25.8617 27.7535 25.8726 27.723C25.8926 27.6666 25.9128 27.6099 25.9312 27.5464C25.9312 27.5463 25.9313 27.5461 25.9313 27.5459L27.9602 20.068L27.9605 20.0671C28.0701 19.6997 28.2613 19.4894 28.5312 19.3736C28.7807 19.2665 29.0922 19.2429 29.45 19.2342L29.5624 18.7398H25.4524ZM30.1749 18.5952H37.6602L36.8678 21.5514H36.3298L36.3344 21.4748C36.3853 20.6176 36.2273 20.167 35.9324 19.9256C35.6322 19.68 35.169 19.631 34.5523 19.6383C34.5135 19.6388 34.4768 19.6391 34.4421 19.6394C34.3166 19.6404 34.217 19.6411 34.1325 19.6494C34.0266 19.6599 33.9552 19.6814 33.8973 19.7236C33.8389 19.7661 33.7861 19.8355 33.7301 19.9579C33.6742 20.0803 33.6179 20.2489 33.5488 20.4836L32.9339 22.943H33.2484L33.2497 22.9431C33.403 22.9484 33.6914 22.947 33.9909 22.8175C34.2879 22.689 34.6012 22.4324 34.803 21.9165L34.8239 21.8632L35.3652 21.9405L34.5793 25.1746H33.9656L33.958 25.1109C33.947 25.0197 33.9438 24.911 33.9413 24.7901C33.9409 24.7739 33.9406 24.7574 33.9402 24.7407C33.938 24.6317 33.9356 24.512 33.9286 24.3816C33.9224 24.2687 33.9031 24.1848 33.8691 24.121C33.8361 24.0589 33.7868 24.0112 33.711 23.9741C33.5523 23.8964 33.2859 23.8685 32.8416 23.8702L32.8413 23.8702H32.6927L31.7811 27.0037C31.7403 27.2018 31.6798 27.4275 31.6358 27.5917C31.625 27.6321 31.6152 27.6687 31.6069 27.7003C31.5581 27.8864 31.5483 28.0254 31.5698 28.1295C31.5906 28.2301 31.6411 28.3019 31.7245 28.356C31.8109 28.4121 31.9353 28.4508 32.1045 28.4749C32.2729 28.4988 32.4793 28.5076 32.7256 28.5082L32.82 28.5085L32.6067 29.2905H27.9351L28.148 28.5097L28.2017 28.5083C28.4777 28.5008 28.7218 28.4459 28.9136 28.3177C29.1033 28.1908 29.2494 27.9871 29.3215 27.6661L29.3219 27.6647L31.2638 20.4186C31.2639 20.4183 31.264 20.418 31.264 20.4177C31.2944 20.2923 31.2952 20.2516 31.2955 20.2243C31.2955 20.2226 31.2955 20.2209 31.2955 20.2191C31.2956 20.2043 31.2957 20.1865 31.299 20.1636C31.3026 20.1384 31.3099 20.1086 31.323 20.0663C31.377 19.8936 31.3612 19.7776 31.313 19.6962C31.2635 19.6127 31.1711 19.5504 31.0408 19.5046C30.9111 19.459 30.7529 19.4328 30.5844 19.4153C30.4708 19.4035 30.3559 19.3959 30.2437 19.3885C30.1891 19.3848 30.1351 19.3813 30.0823 19.3773L29.9986 19.3709L30.1749 18.5952ZM30.2904 18.7398L30.1769 19.2391C30.2008 19.2407 30.225 19.2423 30.2496 19.2439C30.3633 19.2515 30.4831 19.2594 30.5994 19.2715C30.7712 19.2894 30.9429 19.3169 31.0888 19.3682C31.2342 19.4193 31.3633 19.4973 31.4374 19.6226C31.5129 19.7499 31.5229 19.9113 31.4611 20.1093C31.449 20.1481 31.4442 20.1697 31.4421 20.1843C31.4403 20.197 31.4402 20.2053 31.4401 20.2202L31.44 20.2256C31.4397 20.2666 31.4368 20.3186 31.4044 20.4526L31.4042 20.4535L29.4623 27.6992C29.4624 27.6988 29.4625 27.6983 29.4626 27.6978L29.3921 27.682L29.4619 27.7007L29.4623 27.6992C29.3832 28.0501 29.2186 28.2876 28.9939 28.4379C28.7848 28.5777 28.5302 28.6374 28.2594 28.6507L28.2734 28.5995L28.2037 28.5805L28.2056 28.6528C28.2236 28.6523 28.2416 28.6516 28.2594 28.6507L28.1244 29.1459H28.0298V29.2182L28.0995 29.2372L28.1244 29.1459H32.4963L32.4817 29.1992L32.5515 29.2182V29.1459H32.4963L32.6309 28.6521C32.6618 28.6525 32.6932 28.6527 32.7252 28.6528L32.7254 28.5805L32.6556 28.5615L32.6309 28.6521C32.4223 28.6496 32.2396 28.6401 32.0841 28.618C31.9064 28.5927 31.7579 28.5501 31.6458 28.4773C31.5306 28.4025 31.4569 28.2979 31.4282 28.1588C31.4002 28.0233 31.4157 27.8593 31.4671 27.6636C31.4757 27.6308 31.4857 27.5932 31.4968 27.5521C31.541 27.3871 31.6003 27.1658 31.6401 26.9718L31.6407 26.9689L32.5842 23.7256L32.8411 23.7256L32.8413 23.7979V23.7256H32.8412C33.2808 23.724 33.581 23.7494 33.7746 23.8442C33.8749 23.8933 33.948 23.9615 33.9967 24.0531C34.0445 24.1428 34.0661 24.2501 34.0729 24.3737L34.0729 24.3737C34.0801 24.5068 34.0826 24.629 34.0848 24.7379C34.0852 24.7546 34.0855 24.771 34.0858 24.787C34.0878 24.8794 34.0901 24.9602 34.0954 25.03H34.0297V25.1023L34.1015 25.0937C34.0991 25.0735 34.0971 25.0523 34.0954 25.03H34.4657L34.4522 25.0852L34.5225 25.1023V25.03H34.4657L35.1871 22.0611L35.2659 22.0724L35.2761 22.0008L35.2059 21.9838L35.1871 22.0611L34.9161 22.0224C34.9234 22.005 34.9306 21.9872 34.9376 21.9692L34.8703 21.9429L34.8601 22.0144L34.9161 22.0224C34.6992 22.5401 34.3692 22.8114 34.0483 22.9502C33.7201 23.0922 33.4067 23.0932 33.2459 23.0876H33.2471V23.0153L33.2446 23.0876C33.245 23.0876 33.2455 23.0876 33.2459 23.0876H32.7487L33.4089 20.4471L33.4092 20.4456L33.4097 20.4442C33.479 20.2084 33.5379 20.0306 33.5987 19.8977C33.6596 19.7646 33.7254 19.6699 33.8122 19.6067C33.8997 19.543 34.0003 19.5172 34.1183 19.5056C34.2099 19.4965 34.3184 19.4957 34.4452 19.4947C34.4791 19.4945 34.5142 19.4942 34.5506 19.4938C35.1625 19.4864 35.6781 19.5307 36.0239 19.8137C36.3645 20.0924 36.5209 20.5839 36.4828 21.4068H36.4065V21.4791L36.4787 21.4834C36.4803 21.4575 36.4816 21.432 36.4828 21.4068H36.7569L36.7425 21.4604L36.8123 21.4791V21.4068H36.7569L37.4717 18.7398H30.2904ZM38.0908 18.5952H45.4573L44.6649 21.5514H44.0971L44.1025 21.474C44.1485 20.8191 44.0932 20.3666 43.8606 20.0757C43.6365 19.7953 43.2308 19.6455 42.5202 19.6386L40.5639 27.0899C40.5638 27.0902 40.5637 27.0904 40.5637 27.0907C40.5179 27.284 40.4662 27.4663 40.4234 27.6173C40.3985 27.705 40.3766 27.7821 40.3607 27.8448C40.3073 28.0534 40.3649 28.2437 40.5016 28.3769C40.6394 28.5111 40.8642 28.5933 41.1535 28.5665L41.2501 28.5576L41.1035 29.2905H36.1711L36.3486 28.5092L36.4289 28.5078C36.8864 28.5002 37.2713 28.4937 37.5638 28.3464C37.8501 28.2023 38.0602 27.9144 38.1318 27.2968L38.1325 27.2914L40.2247 19.6391C39.482 19.6517 39.0108 19.8151 38.5705 20.1998C38.3419 20.4051 38.2328 20.5346 38.1511 20.7051C38.081 20.8516 38.0305 21.0287 37.9496 21.3128C37.9332 21.3703 37.9156 21.4322 37.8963 21.4991L37.8812 21.5514H37.2679L38.0908 18.5952ZM38.2006 18.7398L37.4582 21.4068H37.7724C37.7854 21.3613 37.7977 21.318 37.8095 21.2767C37.8903 20.9929 37.9448 20.8011 38.0207 20.6427C38.1144 20.447 38.2398 20.3025 38.4742 20.092L38.4745 20.0916L38.4749 20.0913C38.9671 19.6611 39.4968 19.4937 40.3196 19.4937L40.4143 19.4937L38.2748 27.319C38.1992 27.9618 37.9727 28.3025 37.6288 28.4756C37.3091 28.6366 36.8989 28.6447 36.4645 28.6519L36.3522 29.1459H40.985L41.071 28.7159C40.7908 28.7213 40.5571 28.6328 40.4008 28.4805C40.226 28.3103 40.1547 28.0664 40.2206 27.809C40.2387 27.7381 40.2615 27.6578 40.2868 27.5686C40.3287 27.4214 40.3774 27.25 40.4231 27.0566L40.4233 27.0558L42.4087 19.4938L42.4645 19.4937C43.2206 19.4933 43.7007 19.6441 43.9736 19.9854C44.2331 20.31 44.2886 20.7881 44.2518 21.4068H44.554L45.2688 18.7398H38.2006ZM5.23286 21.3925C5.23577 21.9698 5.46039 22.4831 5.78631 22.9658L5.23286 21.3925ZM5.78631 22.9658C6.07528 23.3939 6.44763 23.803 6.82157 24.214L5.78631 22.9658ZM6.82157 24.214C6.86831 24.2653 6.91508 24.3167 6.96172 24.3682L6.82157 24.214ZM6.96172 24.3682C7.28905 24.7294 7.55863 24.9844 7.77727 25.186L6.96172 24.3682ZM7.77727 25.186C7.80863 25.2149 7.83883 25.2426 7.86791 25.2693L7.77727 25.186ZM7.86791 25.2693C8.04304 25.4301 8.17776 25.5538 8.28196 25.6777L7.86791 25.2693ZM8.28196 25.6777C8.40092 25.8192 8.47792 25.9587 8.52272 26.1497L8.28196 25.6777ZM8.52272 26.1497C8.56816 26.3433 8.58114 26.5925 8.56624 26.9544L8.52272 26.1497ZM19.6144 28.1873C19.7271 28.0525 19.8744 27.957 20.03 27.9575H20.0301C20.1899 27.9582 20.3142 28.059 20.3865 28.2019C20.4585 28.3443 20.4832 28.5342 20.4489 28.7375C20.4146 28.941 20.3272 29.1272 20.2131 29.2637C20.1004 29.3985 19.9531 29.4941 19.7976 29.4934C19.6376 29.4928 19.5133 29.3922 19.441 29.2492C19.3691 29.1068 19.3445 28.9169 19.3788 28.7135M19.7253 28.2801C19.6284 28.3959 19.5515 28.5581 19.5214 28.7374C19.4911 28.917 19.5148 29.0745 19.5701 29.184C19.6251 29.2928 19.7069 29.3485 19.7981 29.3488H19.7982C19.8936 29.3492 20.0039 29.2885 20.1022 29.1709C20.1991 29.055 20.2761 28.8928 20.3063 28.7134C20.3365 28.5341 20.3128 28.3767 20.2574 28.2672C20.2024 28.1583 20.1206 28.1025 20.0295 28.1021C19.9339 28.1018 19.8236 28.1626 19.7253 28.2801ZM27.0347 28.1873C27.1474 28.0525 27.2948 27.957 27.4503 27.9575H27.4504C27.6103 27.9582 27.7346 28.0589 27.8069 28.2019C27.8788 28.3443 27.9035 28.5341 27.8692 28.7374C27.8349 28.941 27.7476 29.1272 27.6335 29.2637C27.5208 29.3985 27.3734 29.4941 27.2178 29.4934C27.0579 29.4928 26.9336 29.3922 26.8613 29.2492C26.7894 29.1068 26.7647 28.9169 26.799 28.7134C26.8333 28.5099 26.9206 28.3237 27.0347 28.1873ZM27.1456 28.2801C27.0487 28.3959 26.9718 28.5581 26.9416 28.7374C26.9113 28.9169 26.935 29.0745 26.9904 29.184C27.0454 29.2928 27.1273 29.3485 27.2184 29.3488H27.2185C27.314 29.3492 27.4243 29.2885 27.5225 29.1709C27.6194 29.055 27.6964 28.8929 27.7266 28.7135C27.7569 28.5341 27.7332 28.3767 27.6778 28.2672C27.6228 28.1583 27.5409 28.1025 27.4498 28.1021C27.3542 28.1018 27.2439 28.1626 27.1456 28.2801ZM33.4115 28.1873C33.5242 28.0525 33.6716 27.957 33.8271 27.9575H33.8272C33.9888 27.9582 34.1061 28.061 34.1706 28.205C34.2344 28.3474 34.251 28.5363 34.217 28.7374M33.4115 28.1873C33.2974 28.3237 33.2101 28.5099 33.1758 28.7134L33.4115 28.1873ZM33.5224 28.2801C33.4255 28.3959 33.3486 28.5581 33.3184 28.7374C33.2878 28.9191 33.3051 29.0775 33.3541 29.187C33.4024 29.2949 33.4768 29.3485 33.5662 29.3488H33.5663C33.6618 29.3492 33.7721 29.2885 33.8704 29.1709C33.9672 29.055 34.0442 28.8929 34.0744 28.7135C34.105 28.532 34.0877 28.3736 34.0387 28.2641C33.9904 28.1562 33.916 28.1025 33.8266 28.1021C33.7311 28.1018 33.6207 28.1626 33.5224 28.2801ZM10.584 28.2182C10.6894 28.0827 10.8299 27.9858 10.9866 27.9865C11.1465 27.9872 11.2708 28.0878 11.3431 28.2308C11.415 28.3732 11.4397 28.563 11.4054 28.7664C11.3712 28.97 11.2838 29.1562 11.1697 29.2927C11.057 29.4275 10.9097 29.5231 10.7541 29.5224C10.5926 29.5217 10.4752 29.419 10.4107 29.275C10.347 29.1327 10.3304 28.9438 10.3643 28.7424C10.3982 28.5407 10.4774 28.355 10.584 28.2182ZM10.698 28.307C10.6081 28.4225 10.5374 28.5852 10.5069 28.7664C10.4763 28.9481 10.4937 29.1064 10.5427 29.2159C10.591 29.3237 10.6654 29.3774 10.7547 29.3778C10.8502 29.3782 10.9605 29.3175 11.0588 29.1999C11.1557 29.084 11.2327 28.9218 11.2628 28.7424C11.2931 28.5629 11.2694 28.4055 11.214 28.296C11.159 28.1872 11.0772 28.1315 10.986 28.1311C10.8918 28.1307 10.7891 28.1901 10.698 28.307ZM41.9333 28.2163C42.046 28.0815 42.1933 27.986 42.3488 27.9865H42.3489C42.5088 27.9872 42.6331 28.0879 42.7054 28.2309C42.7774 28.3733 42.802 28.5631 42.7677 28.7664M41.9333 28.2163C41.8192 28.3527 41.7318 28.5388 41.6976 28.7424L41.9333 28.2163ZM42.0442 28.3091C41.9473 28.4249 41.8703 28.5871 41.8402 28.7664C41.8098 28.9459 41.8336 29.1035 41.8889 29.2129C41.9439 29.3218 42.0258 29.3775 42.1169 29.3778H42.117C42.2125 29.3782 42.3228 29.3175 42.4211 29.1999C42.518 29.084 42.5949 28.9218 42.6251 28.7424C42.6554 28.5631 42.6317 28.4056 42.5764 28.2962C42.5213 28.1873 42.4395 28.1315 42.3483 28.1311C42.2528 28.1308 42.1424 28.1916 42.0442 28.3091Z" fill="#939191"/>
<path fill-rule="evenodd" clip-rule="evenodd" d="M2.96274 31.0309C2.24227 28.8172 1.85282 26.4541 1.85282 24.0001C1.85282 21.5595 2.23803 19.2088 2.95096 17.0055H46.1523C46.8652 19.2088 47.2504 21.5595 47.2504 24.0001C47.2504 26.4541 46.861 28.8172 46.1405 31.0309H2.96274ZM3.43092 32.3322H11.8861C12.4081 34.8668 13.3636 37.0823 14.5096 38.9834H7.50047C5.78595 37.0338 4.40049 34.7878 3.43092 32.3322ZM8.739 40.2847H15.3551C16.3285 41.6794 17.386 42.8755 18.4052 43.8755C19.5346 44.9837 20.6215 45.8559 21.5042 46.4959C16.5709 45.8339 12.1395 43.5872 8.739 40.2847ZM23.8647 46.5005C23.8455 46.4891 23.8256 46.4772 23.805 46.4648C23.55 46.3119 23.1802 46.0799 22.7289 45.7684C21.8257 45.1451 20.5997 44.2057 19.3166 42.9466C18.5319 42.1767 17.7283 41.2897 16.9647 40.2847H23.8647V46.5005ZM23.8647 38.9834H16.0461C14.8213 37.1101 13.7819 34.8947 13.2166 32.3322H23.8647V38.9834ZM25.166 32.3322V38.9834H33.1177C34.3452 37.1121 35.3891 34.8975 35.9633 32.3322H25.166ZM37.2948 32.3322H45.6723C44.7027 34.7878 43.3172 37.0338 41.6027 38.9834H34.6555C35.8044 37.0839 36.7643 34.869 37.2948 32.3322ZM33.8074 40.2847H40.3641C36.9734 43.5776 32.5577 45.8209 27.6416 46.4901C28.5172 45.8584 29.5908 45.0014 30.7075 43.9142C31.7422 42.907 32.8178 41.6983 33.8074 40.2847ZM25.166 46.5563V40.2847H32.196C31.4177 41.3058 30.5985 42.2043 29.7998 42.9818C28.5159 44.2316 27.2918 45.1622 26.3905 45.779C25.9402 46.0872 25.5714 46.3165 25.3173 46.4676C25.2611 46.501 25.2106 46.5306 25.166 46.5563ZM45.6866 15.7042H37.0901C36.5733 13.1737 35.6283 10.9577 34.4944 9.05304H41.6346C43.3429 11.0038 44.7224 13.2497 45.6866 15.7042ZM40.4015 7.75172H33.6598C32.6854 6.33664 31.6252 5.12288 30.604 4.10872C29.498 3.0104 28.4332 2.14151 27.5636 1.49943C32.5292 2.15782 36.988 4.42146 40.4015 7.75172ZM25.166 1.45095C25.1865 1.46335 25.208 1.47638 25.2304 1.49004C25.4834 1.6444 25.8505 1.87836 26.2986 2.19226C27.1952 2.82048 28.4125 3.76637 29.687 5.03208C30.4782 5.81778 31.2889 6.72409 32.058 7.75172H25.166V1.45095ZM25.166 9.05304H32.9636C34.1743 10.9306 35.2009 13.1466 35.76 15.7042H25.166V9.05304ZM23.8647 15.7042V9.05304H15.9061C14.6686 10.9285 13.6196 13.1438 13.0478 15.7042H23.8647ZM11.7165 15.7042H3.41662C4.38084 13.2497 5.76031 11.0038 7.46853 9.05304H14.3657C13.2085 10.9557 12.2445 13.1711 11.7165 15.7042ZM15.2185 7.75172H8.7016C12.095 4.44096 16.5216 2.18436 21.4522 1.51115C20.5714 2.14444 19.4977 2.99769 18.3821 4.07449C17.3255 5.09444 16.2269 6.31927 15.2185 7.75172ZM23.8647 1.48239V7.75172H16.833C17.6285 6.71395 18.4675 5.8007 19.2859 5.01079C20.5878 3.75413 21.8301 2.8168 22.7451 2.19479C23.2022 1.884 23.5768 1.65257 23.8349 1.49992C23.845 1.49396 23.8549 1.48811 23.8647 1.48239ZM0.551498 24.0001C0.551498 37.2546 11.2968 48 24.5515 48C37.8061 48 48.5518 37.2547 48.5518 24.0001C48.5518 10.7453 37.8061 3.8147e-06 24.5515 3.8147e-06C11.2968 3.8147e-06 0.551498 10.7453 0.551498 24.0001Z" fill="#939191"/>
</svg>
