<svg width="32" height="32" viewBox="0 0 32 32" fill="none" xmlns="http://www.w3.org/2000/svg">
<circle cx="16.0001" cy="16" r="16" fill="#E5F1FF"/>
<g clip-path="url(#clip0_1_3871)">
<path d="M16.0001 23.4999C15.8438 23.4998 15.6914 23.4509 15.5643 23.36L12.8265 21.4044C11.953 20.7792 11.241 19.9549 10.7495 18.9998C10.258 18.0446 10.0011 16.9861 10.0001 15.912V10.3192C10.0001 10.2076 10.0251 10.0975 10.0731 9.99673C10.1211 9.89601 10.191 9.80726 10.2776 9.73695C10.3643 9.66665 10.4655 9.61656 10.574 9.59033C10.6825 9.5641 10.7954 9.56239 10.9046 9.58533C11.7061 9.75369 12.5336 9.75619 13.3361 9.5927C14.1386 9.4292 14.8991 9.10316 15.5709 8.63465C15.6967 8.54669 15.8465 8.49951 16.0001 8.49951C16.1536 8.49951 16.3034 8.54669 16.4293 8.63465C17.1009 9.10329 17.8615 9.42941 18.664 9.59291C19.4666 9.75641 20.2941 9.75382 21.0956 9.58531C21.2048 9.56238 21.3177 9.56409 21.4262 9.59032C21.5346 9.61655 21.6359 9.66664 21.7225 9.73695C21.8091 9.80725 21.879 9.896 21.927 9.99672C21.9751 10.0974 22 10.2076 22.0001 10.3192V15.9119C21.999 16.9861 21.7421 18.0446 21.2506 18.9997C20.7591 19.9549 20.0471 20.7792 19.1736 21.4044L16.4358 23.3599C16.3087 23.4509 16.1564 23.4998 16.0001 23.4999Z" fill="#7BAEFF"/>
<path d="M15.1373 18.0252C15.0388 18.0252 14.9413 18.0058 14.8503 17.9681C14.7593 17.9304 14.6766 17.8751 14.607 17.8054L13.4073 16.605C13.2681 16.4641 13.1904 16.2738 13.191 16.0757C13.1916 15.8776 13.2706 15.6879 13.4106 15.5478C13.5507 15.4077 13.7404 15.3288 13.9385 15.3281C14.1366 15.3275 14.3269 15.4053 14.4678 15.5444L15.1372 16.2146L17.1573 14.1946C17.2268 14.1243 17.3095 14.0684 17.4007 14.0302C17.4918 13.992 17.5896 13.9722 17.6885 13.9719C17.7873 13.9716 17.8852 13.9909 17.9766 14.0286C18.068 14.0663 18.151 14.1217 18.2209 14.1916C18.2908 14.2615 18.3461 14.3445 18.3838 14.4359C18.4215 14.5272 18.4408 14.6252 18.4405 14.724C18.4402 14.8228 18.4204 14.9206 18.3822 15.0118C18.344 15.103 18.2881 15.1857 18.2178 15.2551L15.6675 17.8054C15.5979 17.8751 15.5152 17.9304 15.4243 17.9681C15.3333 18.0058 15.2358 18.0252 15.1373 18.0252Z" fill="#1768F7"/>
</g>
<defs>
<clipPath id="clip0_1_3871">
<rect width="18" height="18" fill="white" transform="translate(7.00006 7)"/>
</clipPath>
</defs>
</svg>
