<svg width="163" height="120" viewBox="0 0 163 120" fill="none" xmlns="http://www.w3.org/2000/svg">
<g opacity="0.5" filter="url(#filter0_f_1_1903)">
<path d="M139.93 70.4795C124.814 67.6643 149.791 69.4993 139.93 85.4262C104.674 114.09 75.7509 97.516 20 61.3881C38.6464 63.996 54.1362 43.2061 60.6343 46.7921C67.1323 50.3781 81.2246 41.3791 139.93 70.4795Z" fill="url(#paint0_linear_1_1903)" fill-opacity="0.5"/>
</g>
<path d="M25.7834 2.99992L30.9436 0L55.3962 2.08141L50.24 5.08133L25.7834 2.99992Z" fill="#519EFB"/>
<path d="M68.6907 65.3866L63.5313 68.3849C79.1659 59.2992 74.9097 32.8822 74.6393 31.2049L79.7986 28.2065C80.0687 29.8839 84.3253 56.3009 68.6907 65.3866Z" fill="#1553B0"/>
<path d="M50.2404 5.08292L55.3966 2.08301L79.798 28.211L74.6418 31.207L50.2404 5.08292Z" fill="#1553B0"/>
<g opacity="0.5" filter="url(#filter1_b_1_1903)">
<path d="M50.2376 5.08004L74.6394 31.2069C74.969 33.2532 81.2337 72.1331 50.0563 71.4188C18.977 36.1897 25.4412 4.65824 25.7814 2.99902L50.2376 5.08004Z" fill="url(#paint1_radial_1_1903)"/>
<path d="M26.186 3.53526L50.0035 5.56193L74.1698 31.4366C74.4251 33.0542 75.8581 42.8133 73.6759 52.2353C72.544 57.1224 70.4489 61.8757 66.7536 65.3611C63.1053 68.8022 57.8504 71.0518 50.2861 70.9233C21.0086 37.6216 25.412 7.71369 26.186 3.53526Z" stroke="url(#paint2_linear_1_1903)"/>
</g>
<g opacity="0.7" filter="url(#filter2_b_1_1903)">
<path d="M51.1064 63.3411C30.7172 39.7718 31.0338 18.5592 31.8415 11.5537L49.1433 12.7308L68.3198 33.3668C68.8091 36.9533 70.1505 50.5483 63.7258 58.0918C60.8173 61.5072 56.5725 63.2721 51.1064 63.3411Z" fill="url(#paint3_radial_1_1903)" fill-opacity="0.7"/>
<path d="M63.3451 57.7676L63.3451 57.7677C60.5909 61.0019 56.5746 62.7233 51.3319 62.8372C31.6514 39.982 31.5397 19.4175 32.2868 12.0852L48.9118 13.2162L67.8455 33.5908C68.0914 35.45 68.5082 39.5981 68.1173 44.2031C67.714 48.955 66.4569 54.114 63.3451 57.7676Z" stroke="white" stroke-opacity="0.5"/>
</g>
<g filter="url(#filter3_f_1_1903)">
<path d="M48.9362 40.4072C48.7625 40.3299 48.5906 40.2156 48.4302 40.0709C48.2698 39.9262 48.1241 39.7538 48.0014 39.5638L45.8863 36.2885C45.6409 35.9052 45.5038 35.4743 45.5049 35.0897C45.506 34.7052 45.6452 34.3982 45.8921 34.2359C46.139 34.0735 46.4736 34.069 46.8228 34.2233C47.172 34.3775 47.5075 34.678 47.7559 35.0592L48.9361 36.8875L52.4975 34.5462C52.62 34.4641 52.7658 34.4204 52.9265 34.4177C53.0872 34.415 53.2597 34.4532 53.4339 34.5302C53.6082 34.6073 53.7808 34.7216 53.9419 34.8666C54.103 35.0116 54.2493 35.1844 54.3726 35.3752C54.4958 35.5659 54.5934 35.7707 54.6599 35.978C54.7263 36.1852 54.7603 36.3906 54.7598 36.5826C54.7593 36.7745 54.7243 36.9491 54.6569 37.0963C54.5896 37.2435 54.4911 37.3604 54.3672 37.4403L49.871 40.3962C49.7483 40.477 49.6026 40.5196 49.4421 40.5215C49.2817 40.5233 49.1098 40.4845 48.9362 40.4072Z" fill="white"/>
</g>
<path d="M48.9362 40.4072C48.7625 40.3299 48.5906 40.2156 48.4302 40.0709C48.2698 39.9262 48.1241 39.7538 48.0014 39.5638L45.8863 36.2885C45.6409 35.9052 45.5038 35.4743 45.5049 35.0897C45.506 34.7052 45.6452 34.3982 45.8921 34.2359C46.139 34.0735 46.4736 34.069 46.8228 34.2233C47.172 34.3775 47.5075 34.678 47.7559 35.0592L48.9361 36.8875L52.4975 34.5462C52.62 34.4641 52.7658 34.4204 52.9265 34.4177C53.0872 34.415 53.2597 34.4532 53.4339 34.5302C53.6082 34.6073 53.7808 34.7216 53.9419 34.8666C54.103 35.0116 54.2493 35.1844 54.3726 35.3752C54.4958 35.5659 54.5934 35.7707 54.6599 35.978C54.7263 36.1852 54.7603 36.3906 54.7598 36.5826C54.7593 36.7745 54.7243 36.9491 54.6569 37.0963C54.5896 37.2435 54.4911 37.3604 54.3672 37.4403L49.871 40.3962C49.7483 40.477 49.6026 40.5196 49.4421 40.5215C49.2817 40.5233 49.1098 40.4845 48.9362 40.4072Z" fill="white"/>
<defs>
<filter id="filter0_f_1_1903" x="0" y="26.375" width="162.308" height="93.625" filterUnits="userSpaceOnUse" color-interpolation-filters="sRGB">
<feFlood flood-opacity="0" result="BackgroundImageFix"/>
<feBlend mode="normal" in="SourceGraphic" in2="BackgroundImageFix" result="shape"/>
<feGaussianBlur stdDeviation="10" result="effect1_foregroundBlur_1_1903"/>
</filter>
<filter id="filter1_b_1_1903" x="21" y="-1.00098" width="58.3673" height="76.4297" filterUnits="userSpaceOnUse" color-interpolation-filters="sRGB">
<feFlood flood-opacity="0" result="BackgroundImageFix"/>
<feGaussianBlur in="BackgroundImageFix" stdDeviation="2"/>
<feComposite in2="SourceAlpha" operator="in" result="effect1_backgroundBlur_1_1903"/>
<feBlend mode="normal" in="SourceGraphic" in2="effect1_backgroundBlur_1_1903" result="shape"/>
</filter>
<filter id="filter2_b_1_1903" x="-100.086" y="-120.103" width="300.521" height="315.102" filterUnits="userSpaceOnUse" color-interpolation-filters="sRGB">
<feFlood flood-opacity="0" result="BackgroundImageFix"/>
<feGaussianBlur in="BackgroundImageFix" stdDeviation="65.8286"/>
<feComposite in2="SourceAlpha" operator="in" result="effect1_backgroundBlur_1_1903"/>
<feBlend mode="normal" in="SourceGraphic" in2="effect1_backgroundBlur_1_1903" result="shape"/>
</filter>
<filter id="filter3_f_1_1903" x="41.5049" y="30.1108" width="17.2549" height="14.4106" filterUnits="userSpaceOnUse" color-interpolation-filters="sRGB">
<feFlood flood-opacity="0" result="BackgroundImageFix"/>
<feBlend mode="normal" in="SourceGraphic" in2="BackgroundImageFix" result="shape"/>
<feGaussianBlur stdDeviation="2" result="effect1_foregroundBlur_1_1903"/>
</filter>
<linearGradient id="paint0_linear_1_1903" x1="66.7139" y1="59.2446" x2="124.284" y2="81.9852" gradientUnits="userSpaceOnUse">
<stop stop-color="#005DFF"/>
<stop offset="1" stop-color="white" stop-opacity="0"/>
</linearGradient>
<radialGradient id="paint1_radial_1_1903" cx="0" cy="0" r="1" gradientUnits="userSpaceOnUse" gradientTransform="translate(50.1837 37.2138) rotate(89.7268) scale(27.6001 20.1838)">
<stop stop-color="#00DECA"/>
<stop offset="1" stop-color="#277DFE"/>
</radialGradient>
<linearGradient id="paint2_linear_1_1903" x1="48.9216" y1="63.7542" x2="62.707" y2="20.4548" gradientUnits="userSpaceOnUse">
<stop stop-color="#96C5FF"/>
<stop offset="1" stop-color="#1164F4" stop-opacity="0"/>
</linearGradient>
<radialGradient id="paint3_radial_1_1903" cx="0" cy="0" r="1" gradientUnits="userSpaceOnUse" gradientTransform="translate(34.0126 21.0394) rotate(56.8756) scale(54.7886 82.9693)">
<stop stop-color="#277DFE" stop-opacity="0.65"/>
<stop offset="0.0001" stop-color="white"/>
<stop offset="1" stop-color="#1F73FB"/>
</radialGradient>
</defs>
</svg>
