<svg width="106" height="32" viewBox="0 0 106 32" fill="none" xmlns="http://www.w3.org/2000/svg">
<path d="M38.7018 31.1635L44.0631 1.00586L52.4402 1.00586L47.2464 31.1635H38.7018Z" fill="#939191"/>
<path d="M38.7018 31.1635L45.571 1.00586L52.4402 1.00586L47.2464 31.1635H38.7018Z" fill="#939191"/>
<path d="M77.5725 1.34034C75.8971 0.670171 73.2164 0 69.8656 0C61.4885 0 55.4569 4.18856 55.4569 10.2201C55.4569 14.7437 59.6455 17.0893 62.9963 18.5972C66.3472 20.1051 67.3524 21.1103 67.3524 22.4507C67.3524 24.4612 64.6718 25.4664 62.3262 25.4664C58.9753 25.4664 57.1324 24.9638 54.2841 23.791L53.1113 23.2884L51.9386 30.1576C53.9491 30.9953 57.635 31.833 61.4885 31.833C70.3682 31.833 76.2322 27.6445 76.2322 21.2779C76.2322 17.7595 74.0541 15.0788 69.0279 12.9008C66.0121 11.3929 64.1691 10.5552 64.1691 9.04728C64.1691 7.70694 65.677 6.36661 69.0279 6.36661C71.8761 6.36661 73.8866 6.86923 75.3945 7.5394L76.2322 7.87449L77.5725 1.34034Z" fill="#939191"/>
<path d="M77.5725 1.34034C75.8971 0.670171 73.2164 0 69.8656 0C61.4885 0 56.9648 4.18856 56.9648 10.2201C56.9648 14.7437 59.6455 17.0893 62.9963 18.5972C66.3472 20.1051 67.3524 21.1103 67.3524 22.4507C67.3524 24.4612 64.6718 25.4664 62.3262 25.4664C58.9753 25.4664 57.1324 24.9638 54.2841 23.791L53.1113 23.2884L51.9386 30.1576C53.9491 30.9953 57.635 31.833 61.4885 31.833C70.3682 31.833 76.2322 27.6445 76.2322 21.2779C76.2322 17.7595 74.0541 15.0788 69.0279 12.9008C66.0121 11.3929 64.1691 10.5552 64.1691 9.04728C64.1691 7.70694 65.677 6.36661 69.0279 6.36661C71.8761 6.36661 73.8866 6.86923 75.3945 7.5394L76.2322 7.87449L77.5725 1.34034Z" fill="#939191"/>
<path d="M91.9806 1.00586C89.9701 1.00586 88.4622 1.1734 87.6245 3.18391L75.0588 31.1635H84.1061L85.7815 26.1372H96.5042L97.5095 31.1635H105.552L98.5147 1.00586L91.9806 1.00586ZM88.1271 21.1109C88.6298 19.603 91.478 12.2312 91.478 12.2312C91.478 12.2312 92.1481 10.3882 92.6508 9.21543L93.1534 12.0636C93.1534 12.0636 94.8288 19.603 95.1639 21.2785H88.1271V21.1109Z" fill="#939191"/>
<path d="M93.9911 1.00586C91.9806 1.00586 90.4727 1.1734 89.635 3.18391L75.0588 31.1635H84.1061L85.7815 26.1372H96.5042L97.5095 31.1635H105.552L98.5147 1.00586L93.9911 1.00586ZM88.1271 21.1109C88.7973 19.4355 91.478 12.2312 91.478 12.2312C91.478 12.2312 92.1481 10.3882 92.6508 9.21543L93.1534 12.0636C93.1534 12.0636 94.8288 19.603 95.1639 21.2785H88.1271V21.1109Z" fill="#939191"/>
<path d="M23.2879 22.1166L22.4502 17.7605C20.9423 12.7342 16.0835 7.20535 10.7222 4.52467L18.2616 31.3314H27.3089L40.8798 1.17383L31.8325 1.17383L23.2879 22.1166Z" fill="#939191"/>
<path d="M23.2879 22.1166L22.4502 17.7605C20.9423 12.7342 16.0835 7.20535 10.7222 4.52467L18.2616 31.3314H27.3089L40.8798 1.17383L33.5079 1.17383L23.2879 22.1166Z" fill="#939191"/>
<path d="M0 1.00586L1.50788 1.34095C12.2306 3.85408 19.6024 10.2207 22.4507 17.7601L19.4349 3.51899C18.9323 1.50849 17.4244 1.00586 15.5814 1.00586L0 1.00586Z" fill="#939191"/>
<path d="M0 1.00586C10.7227 3.51899 19.6024 10.0531 22.4507 17.5925L19.6024 5.69704C19.0998 3.68653 17.4244 2.51374 15.5814 2.51374L0 1.00586Z" fill="#939191"/>
<path d="M0 1.00586C10.7227 3.51899 19.6024 10.0531 22.4507 17.5925L20.4402 11.0584C19.9375 9.04789 19.2674 7.03738 16.9218 6.19967L0 1.00586Z" fill="#939191"/>
<path d="M31.665 21.1097L25.9686 15.4133L23.2879 21.7799L22.6177 17.5913C21.1098 12.565 16.2511 7.03614 10.8898 4.35547L18.4292 31.1622H27.4764L31.665 21.1097Z" fill="#939191"/>
<path d="M47.2464 31.1629L40.0421 23.791L38.7018 31.1629H47.2464Z" fill="#939191"/>
<path d="M66.5148 20.7744C67.1849 21.4446 67.52 21.9472 67.3525 22.6174C67.3525 24.6279 64.6718 25.6331 62.3262 25.6331C58.9754 25.6331 57.1324 25.1305 54.2842 23.9577L53.1114 23.4551L51.9386 30.3243C53.9491 31.162 57.635 31.9997 61.4885 31.9997C66.8499 31.9997 71.206 30.4919 73.7191 27.8112L66.5148 20.7744Z" fill="#939191"/>
<path d="M76.2312 31.1629H84.1057L85.7811 26.1366H96.5038L97.5091 31.1629H105.551L102.703 18.9323L92.6503 9.21484L93.153 11.8955C93.153 11.8955 94.8284 19.4349 95.1635 21.1103H88.1267C88.7969 19.4349 91.4775 12.2306 91.4775 12.2306C91.4775 12.2306 92.1477 10.3876 92.6503 9.21484" fill="#939191"/>
</svg>
